<?xml version="1.0" standalone="no"?>
<!DOCTYPE svg PUBLIC "-//W3C//DTD SVG 1.1//EN" "http://www.w3.org/Graphics/SVG/1.1/DTD/svg11.dtd" >
<svg xmlns="http://www.w3.org/2000/svg">
<metadata>Generated by IcoMoon</metadata>
<defs>
<font id="pcbicon" horiz-adv-x="1024">
<font-face units-per-em="1024" ascent="960" descent="-64" />
<missing-glyph horiz-adv-x="1024" />
<glyph unicode="&#x20;" horiz-adv-x="512" d="" />
<glyph unicode="&#xe334;" glyph-name="user-add" horiz-adv-x="1056" d="M272.95 103.492c93.288-102.861 228.001-167.431 377.819-167.431 147.933 0 281.117 62.965 374.287 163.586-6.906 6.669-13.18 10.865-18.439 11.927l-80.617 25.262c-18.008 6.906-39.817 12.24-53.981 16.123-20.007 6.669-43.349 13.338-63.356 16.673-30.011 6.669-60.022 6.669-90.032 10.004v53.353c103.371 76.694 133.381 183.396 133.381 266.76 0 10.004 0 33.345-3.335 90.032-10.004 163.392-96.701 186.731-200.069 186.731h-3.453c-103.371 0-190.065-23.342-200.069-186.731-3.335-56.687-3.335-80.029-3.335-90.032 0-83.363 30.011-190.065 133.381-266.76v-53.353c-30.011-3.335-60.022-3.335-90.032-10.004-20.007-3.335-43.349-10.004-63.356-16.673-14.2-3.884-35.973-9.218-54.020-16.123l-80.617-25.262c-4.12-0.825-8.905-3.647-14.16-8.080zM30.943 803.034v-78.46h156.917v-156.917h78.46v156.917h156.917v78.46h-156.917v156.917h-78.46v-156.917h-156.917z" />
<glyph unicode="&#xe335;" glyph-name="user-circle" horiz-adv-x="1056" d="M712.475 581.982c-9.325 152.304-90.139 174.058-186.491 174.058-93.247 0-167.842-15.541-183.383-167.842l-3.108-111.897c3.108-74.598 31.082-158.517 124.329-226.898v-49.732c-55.801-6.983-129.412-16.455-192.965-40.223l-0.914 0.84-68.087-29.875c-79.864 82.019-129.081 194.063-129.081 317.586 0 251.4 203.826 455.225 455.225 455.225s455.225-203.826 455.225-455.225c0-120.636-46.952-230.301-123.523-311.771l-75.146 23.548c-16.786 6.437-37.115 11.409-50.317 15.029-18.649 6.216-40.407 12.433-59.057 15.541-27.974 6.216-55.948 6.216-83.922 9.325v49.732c96.355 71.489 124.329 170.95 124.329 248.656 0 9.325 0 31.082-3.108 83.922zM527.992 959.94c-282.736 0-511.94-229.203-511.94-511.94s229.203-511.94 511.94-511.94 511.94 229.203 511.94 511.94-229.203 511.94-511.94 511.94z" />
<glyph unicode="&#xe336;" glyph-name="user-circle-solid" horiz-adv-x="1056" d="M16.052 448c0-282.736 229.203-511.94 511.94-511.94s511.94 229.203 511.94 511.94-229.203 511.94-511.94 511.94-511.94-229.203-511.94-511.94zM175.813 128.694c4.901 4.132 9.361 6.765 13.199 7.532l75.146 23.548c16.82 6.437 37.115 11.409 50.354 15.029 18.649 6.216 40.407 12.433 59.057 15.541 27.974 6.216 55.948 6.216 83.922 9.325v49.732c-96.355 71.489-124.329 170.95-124.329 248.656 0 9.325 0 31.082 3.108 83.922 9.325 152.304 90.139 174.058 186.491 174.058h3.219c96.355 0 177.167-21.758 186.491-174.058 3.108-52.84 3.108-74.598 3.108-83.922 0-77.706-27.974-177.167-124.329-248.656v-49.732c27.974-3.108 55.948-3.108 83.922-9.325 18.649-3.108 40.407-9.325 59.057-15.541 13.199-3.62 33.532-8.592 50.317-15.029l75.146-23.548c4.901-0.987 10.75-4.901 17.187-11.118-86.847-93.796-210.992-152.485-348.886-152.485-139.65 0-265.221 60.191-352.178 156.068z" />
<glyph unicode="&#xe600;" glyph-name="pcb" d="M515.366 931.323c-268.592 0-486.369-216.369-486.369-483.356 0-266.92 217.777-483.289 486.369-483.289 52.371 0 102.789 8.239 150.045 23.467-38.831-10.347-79.719-15.915-121.96-15.915-164.444 0-308.633 83.809-389.448 209.647 61.912-35.652 131.748-58.088 217.663-70.765 8.854-36.951 26.52-69.527 53.475-94.937 4.563-4.329 9.34-8.342 14.288-12.103-28.135 28.14-44.903 64.269-50.915 104.759 12.218-1.587 24.657-3.048 37.538-4.276 136.201-12.988 255.955 3.663 350.417 48.779-82.878-21.096-174.163-30.725-278.036-20.812-38.494 3.67-76.136 10.174-112.328 19.046 1.921 66.107 28.812 139.587 78.43 207.388 114.524-83.689 222.47-146.837 315.188-197.242-86.628 63.743-185.714 136.901-289.060 230.045 3.502 4.027 7.080 8.026 10.75 11.991 43.61 47.133 98.797 84.201 155.696 107.252 63.597-124.898 100.11-231.434 131.474-342.004-11.559 110.699-39.466 225.311-92.215 355.605 80.797 23.189 160.5 16.506 211.257-31.372 83.647-78.899 72.468-230.345-19.303-358.389 56.678 66.267 93.071 140.378 107.314 210.396 1.444 5.929 2.74 11.432 3.622 15.557 1.511 7.029 2.862 18.018 3.952 28.152 13.238 104.001-7.145 211.19-65.472 298.837-83.825 145.509-241.575 243.54-422.373 243.54zM443.505 841.165c-64.922-22.841-126.085-60.69-177.598-113.211-15.805-16.115-30.156-33.109-43.156-50.775-7.692 9.607-15.261 19.197-22.696 28.772 62.815 67.331 147.387 115.447 243.45 135.214zM608.291 794.309c49.855 0.066 98.99-8.776 144.935-26.587-53.113 7.644-109.46 1.475-164.853-17.195-7.836 14.339-15.597 28.123-23.4 41.479 14.459 1.497 28.917 2.284 43.318 2.303zM493.296 778.477c12.522-16.785 24.894-34.138 37.197-52.212-74.362-37.441-144.142-97.506-198.483-176.788-24.558 26.949-48.234 53.977-70.922 80.979 6.505 7.48 13.241 14.832 20.281 22.008 61.577 62.765 135.309 104.908 211.927 126.013zM715.381 703.564c52.734 0.395 102.72-13.513 145.656-43.050 33.768-23.244 60.547-56.084 79.928-94.881-65.302 60.381-168.488 64.896-271.496 21.969-12.509 27.876-26.101 56.484-40.903 85.948-2.553 5.082-5.061 10.012-7.563 14.931 31.823 9.73 63.57 14.852 94.378 15.082zM568.282 668.134c16.67-26.764 33.421-55.068 50.518-85.518 2.899-5.16 5.63-10.196 8.436-15.289-45.504-24.821-89.931-58.809-129.931-101.226-13.827-14.664-26.61-29.801-38.343-45.263-28.645 26.775-57.547 55.155-86.541 85.344 57.018 74.181 125.459 129.123 195.861 161.952zM147.535 636.958c10.314-10.703 20.817-21.406 31.495-32.104-45.898-94.456-57.768-200.577-35.184-299.061-3.5 89.206 20.609 181.64 71.682 263.206 20.234-19.495 40.994-38.934 62.363-58.244 6.665-6.029 13.323-11.957 19.974-17.833-50.561-95.675-69.597-197.968-58.272-288.976-54.629 26.515-101.753 58.603-137.959 93.808-10.62 37.423-16.318 76.816-16.318 117.499 0 81.544 22.663 157.134 62.218 221.705zM338.634 457.772c31.617-26.63 62.988-51.604 93.942-75.036-47.434-75.389-70.667-155.606-67.305-225.735-40.735 11.188-79.397 25.382-115.078 41.943 5.646 83.664 35.002 174.222 88.441 258.829zM631.641 312.38c-96.117-83.513-128.278-203.884-71.795-268.909 44.264-50.95 129.783-52.772 210.955-10.999-68.251-31.443-138.692-27.598-176.236 15.629-50.098 57.67-22.65 163.532 61.247 236.43 83.964 72.915 192.601 85.301 242.682 27.581 37.561-43.194 31.576-113.451-9.127-176.654 52.672 74.52 62.819 159.453 18.588 210.387-56.483 65.008-180.215 50.064-276.314-33.465z" />
<glyph unicode="&#xe601;" glyph-name="carat-l" d="M675.296 618.933l-170.526-170.933 170.526-170.896-78.199-78.31-248.428 249.207 248.428 249.17z" />
<glyph unicode="&#xe602;" glyph-name="carat-r" d="M337.779 630.329l181.894-182.329-181.894-182.289 83.452-83.531 264.99 265.821-264.99 265.781z" />
<glyph unicode="&#xe603;" glyph-name="carat-u" d="M682.415 284.111l-170.6 170.933-170.192-170.933-78.236 78.57 248.428 249.207 248.799-249.207z" />
<glyph unicode="&#xe604;" glyph-name="carat-d" d="M682.34 611.889l-170.526-170.896-170.192 170.896-78.236-78.607 248.428-249.17 248.799 249.17z" />
<glyph unicode="&#xe605;" glyph-name="arr-r" d="M247.257 519.191v-142.383h351.508v-106.787l178.015 177.979-178.015 177.979v-106.787z" />
<glyph unicode="&#xe606;" glyph-name="arr-l" d="M778.968 376.808v142.383h-354.474v106.787l-179.462-177.979 179.462-178.015v106.824z" />
<glyph unicode="&#xe607;" glyph-name="arr-u" d="M583.192 181.032h-142.383v357.441h-106.787l177.979 176.496 177.979-176.496h-106.787z" />
<glyph unicode="&#xe608;" glyph-name="arr-d" d="M583.192 710.518h-142.383v-348.542h-106.787l177.979-176.495 177.979 176.496h-106.787z" />
<glyph unicode="&#xe609;" glyph-name="bullet-r" d="M358.4 140.8l307.2 307.2-307.2 307.2z" />
<glyph unicode="&#xe60a;" glyph-name="bullet-l" d="M665.6 140.8l-307.2 307.2 307.2 307.2z" />
<glyph unicode="&#xe60b;" glyph-name="bullet-u" d="M204.8 294.4l307.2 307.2 307.2-307.2z" />
<glyph unicode="&#xe60c;" glyph-name="bullet-d" d="M819.2 601.6h-614.4l307.2-307.2 307.2 307.2z" />
<glyph unicode="&#xe60d;" glyph-name="circle-r" d="M512 902.301c-250.812 0-454.301-203.49-454.301-454.301s203.49-454.301 454.301-454.301 454.301 203.49 454.301 454.301-203.49 454.301-454.301 454.301zM330.279 666.159l99.851 99.851 317.111-318.011-317.111-318.057-99.851 99.899 217.687 218.159-217.687 218.159z" />
<glyph unicode="&#xe60e;" glyph-name="circle-l" d="M512 902.301c-250.812 0-454.301-203.49-454.301-454.301s203.49-454.301 454.301-454.301 454.301 203.49 454.301 454.301-203.49 454.301-454.301 454.301zM702.238 666.159l-217.687-218.159 217.687-218.112-99.805-99.899-317.111 318.011 317.064 318.011 99.851-99.851z" />
<glyph unicode="&#xe60f;" glyph-name="circle-u" d="M512 902.301c-250.812 0-454.301-203.49-454.301-454.301s203.49-454.301 454.301-454.301 454.301 203.49 454.301 454.301-203.49 454.301-454.301 454.301zM732.052 261.595l-217.686 218.112-217.212-218.112-99.851 100.277 317.064 318.011 317.538-318.011-99.851-100.277z" />
<glyph unicode="&#xe610;" glyph-name="circle-d" d="M512 902.301c-250.812 0-454.301-203.49-454.301-454.301s203.49-454.301 454.301-454.301 454.301 203.49 454.301 454.301-203.49 454.301-454.301 454.301zM730.112 634.452l99.899-100.325-317.538-318.011-317.064 318.011 99.851 100.326 217.212-218.159 217.639 218.159z" />
<glyph unicode="&#xe611;" glyph-name="plus" d="M857.6 367.36v161.28h-264.96v264.96h-161.28v-264.96h-264.96v-161.28h264.96v-264.96h161.28v264.96z" />
<glyph unicode="&#xe612;" glyph-name="minus" d="M166.4 528.64h691.2v-161.28h-691.2v161.28z" />
<glyph unicode="&#xe613;" glyph-name="load" d="M198.184 671.351c121.559 168.068 356.22 207.708 526.349 88.261 172.296-120.502 214.050-357.858 93.6-530.103-120.554-171.769-357.804-213.521-530.103-93.019-58.137 40.695-101.475 94.605-128.428 154.854l-127.901-22.725c34.882-92.489 96.717-175.467 183.394-236.299 229.906-160.616 545.956-105.122 706.573 124.782 160.722 229.376 105.176 545.905-124.2 706.573-227.843 159.612-541.201 105.703-702.874-119.445l-87.206 60.727 42.811-241.003 241.003 42.281-93.019 65.113z" />
<glyph unicode="&#xe614;" glyph-name="logoff" d="M295.149 852.644c-157.234-79.806-265.156-242.536-265.156-430.793 0-266.108 215.899-482.007 482.007-482.007s481.954 215.899 481.954 482.007c0 188.311-107.87 350.987-265.051 430.793v-141.537c87.893-65.8 144.549-170.711 144.549-289.257 0-199.884-161.673-361.452-361.505-361.452-199.779 0-361.505 161.567-361.505 361.452 0 118.493 56.763 223.457 144.654 289.257v141.537zM497.466 952.059c-31.606 0-57.714-26.162-57.714-57.767v-366.526c0-31.606 26.109-57.714 57.714-57.714h29.121c31.606 0 57.661 26.109 57.661 57.714v366.526c0 31.606-26.056 57.767-57.661 57.767h-29.121z" />
<glyph unicode="&#xe615;" glyph-name="filter" d="M6.071 935.776l394.048-394.71v-501.637l221.775-79.206v578.863l396.030 396.689z" />
<glyph unicode="&#xe616;" glyph-name="check" d="M273.043 579.481l-129.845-129.845 290.241-290.186 447.363 447.309-129.845 129.845-317.518-317.518z" />
<glyph unicode="&#xe617;" glyph-name="delete" d="M312.32 769.536l-121.856-121.856 199.68-199.68-199.68-199.68 121.856-121.856 199.68 199.629 199.68-199.629 121.856 121.856-199.629 199.68 199.629 199.68-121.856 121.856-199.68-199.68z" />
<glyph unicode="&#xe618;" glyph-name="grid" d="M147.5 812.5v-182.25h182.25v182.25h-182.25zM420.875 812.5v-182.25h182.25v182.25h-182.25zM694.25 812.5v-182.25h182.25v182.25h-182.25zM147.5 539.125v-182.25h182.25v182.25h-182.25zM420.875 539.125v-182.25h182.25v182.25h-182.25zM694.25 539.125v-182.25h182.25v182.25h-182.25zM147.5 265.75v-182.25h182.25v182.25h-182.25zM420.875 265.75v-182.25h182.25v182.25h-182.25zM694.25 265.75v-182.25h182.25v182.25h-182.25z" />
<glyph unicode="&#xe619;" glyph-name="menu" d="M170.281 789.719v-170.859h683.477v170.859h-683.477zM170.281 533.43v-170.859h683.477v170.859h-683.477zM170.281 277.141v-170.859h683.477v170.859h-683.477z" />
<glyph unicode="&#xe61a;" glyph-name="pin" d="M500.849-59.534c280.695 431.217 375.246 576.030 319.276 811.22-57.608 240.475-528.516 301.254-621.588 0-75.578-243.065 302.311-811.22 302.311-811.22zM513.533 786.62c90.905 0 164.844-73.992 164.844-164.897s-73.94-164.897-164.844-164.897c-90.957 0-164.95 73.992-164.95 164.897 0.053 90.905 74.045 164.897 164.95 164.897z" />
<glyph unicode="&#xe61d;" glyph-name="pie" d="M486.895 955.111c-268.486-13.213-482.007-235.19-482.007-506.847 0-280.114 227.262-507.375 507.375-507.375 271.71 0 493.634 213.468 506.847 482.007h-127.372c-12.684-198.194-177.529-355.163-379.475-355.163-210.297 0-380.532 170.182-380.532 380.532 0 201.893 157.022 366.79 355.215 379.475v127.372zM1018.054 486.317c-18.498 249.988-217.749 449.239-467.737 467.737v-467.737h467.737z" />
<glyph unicode="&#xe61e;" glyph-name="chart" d="M20.48 939.52v-983.040h983.040v98.304h-884.736v884.736h-98.304zM217.088 607.744v-503.859h172.032v503.859h-172.032zM487.424 534.016v-430.131h172.032v430.131h-172.032zM757.76 706.048v-602.163h172.032v602.163h-172.032zM217.088 669.184l196.608 110.592 159.744-135.168 258.048 172.032 49.152-36.864v135.168h-147.456l49.101-49.152-208.845-135.168-147.456 122.88-245.76-135.168 36.864-49.152z" />
<glyph unicode="&#xe61f;" glyph-name="home" d="M4.625 663.635h126.844v-469.375h126.844v418.637h177.581v-418.637h152.16v418.637h177.581v-418.637h126.844v469.375h126.897l-507.375 291.741-507.375-291.741zM512 853.9c49.152 0 88.791-39.639 88.791-88.791s-39.639-88.791-88.791-88.791c-49.152 0-88.791 39.639-88.791 88.791s39.639 88.791 88.791 88.791zM68.046 168.996v-101.58h887.907v101.58h-887.907zM4.625 42.1v-101.475h1014.751v101.475h-1014.751z" />
<glyph unicode="&#xe620;" glyph-name="clock" d="M803.741 490.81h-247.346v256.859l-94.076-1.057-0.529-349.349h341.95v93.547zM512 955.375c-280.114 0-507.375-227.262-507.375-507.375s227.262-507.375 507.375-507.375 507.375 227.262 507.375 507.375-227.262 507.375-507.375 507.375zM512 828.532c210.349 0 380.532-170.182 380.532-380.532s-170.182-380.532-380.532-380.532c-210.349 0-380.532 170.182-380.532 380.532s170.182 380.532 380.532 380.532z" />
<glyph unicode="&#xe621;" glyph-name="gears" d="M391.975 640.039c-54.011 0-98.202-43.645-98.202-98.202 0-54.011 44.191-98.202 98.202-98.202 54.557 0 98.202 44.191 98.202 98.202 0 54.557-43.645 98.202-98.202 98.202zM295.465 820.621c-10.911-3.819-21.332-8.184-31.097-13.093-18.058 23.459-46.373 38.735-78.616 38.735-53.956 0-98.202-43.645-98.202-98.202 0-31.643 15.275-60.012 39.335-78.016-4.964-10.366-9.329-20.732-13.093-31.097-5.51 1.091-10.966 1.091-16.366 1.091-54.011 0-98.257-43.645-98.257-98.202 0-54.011 44.245-98.202 98.257-98.202 5.455 0 10.857 0.546 16.366 1.637 3.765-10.911 8.129-21.277 13.093-31.097-24.059-18.004-39.335-46.373-39.335-78.561 0-54.011 44.245-98.257 98.202-98.257 32.243 0 60.557 15.275 78.561 39.335 9.82-4.91 20.186-9.275 31.097-13.093-1.091-4.91-1.637-10.311-1.637-16.421 0-53.956 44.191-98.147 98.202-98.147 54.557 0 98.202 44.191 98.202 98.147 0 6.055-0.546 11.511-1.091 16.421 10.311 3.819 20.732 8.184 31.043 13.093 17.459-24.005 46.373-39.335 78.016-39.335 54.557 0 98.257 44.245 98.257 98.257 0 32.188-15.33 60.504-38.789 78.507 4.91 9.82 8.729 20.186 12.548 31.097 5.455-1.091 10.857-1.637 16.421-1.637 54.557 0 98.147 44.191 98.147 98.202 0 54.557-43.591 98.202-98.147 98.202-5.455 0.055-10.911 0.055-16.366-1.036-3.819 10.366-7.692 20.732-12.548 31.097 23.459 18.004 38.789 46.373 38.789 78.016 0 54.557-43.7 98.202-98.257 98.202-31.698 0-60.557-15.275-78.016-38.735-10.366 4.91-20.732 9.275-31.043 13.093 0.491 4.91 1.036 10.366 1.036 15.821 0 54.557-43.645 98.202-98.202 98.202-54.011 0-98.202-43.645-98.202-98.202 0-5.455 0.546-10.911 1.691-15.821zM391.975 738.241c108.568 0 196.404-87.836 196.404-196.404 0-108.022-87.836-196.404-196.404-196.404s-196.404 88.382-196.404 196.404c0.055 108.568 87.836 196.404 196.404 196.404zM812.606 252.142c-4.364-1.146-8.729-3.273-13.093-5.51-8.074 10.366-20.131 16.967-34.316 16.967-23.459 0-42.5-19.095-42.5-42.554 0-13.639 6.493-26.133 16.858-33.825-2.127-4.364-3.819-8.729-5.455-13.639-2.127 0.546-4.364 0.546-7.038 0.546-23.567 0-42.609-19.095-42.609-42.5s19.095-42.554 42.609-42.554c2.674 0 4.91 0.6 7.038 0.6 1.582-4.364 3.328-8.729 5.455-13.093-10.311-7.692-16.858-20.241-16.858-33.88 0-23.459 19.095-42.5 42.5-42.5 14.184 0 26.187 6.547 34.316 16.967 4.364-2.237 8.729-4.364 13.093-6.002 0-2.182-0.546-4.364-0.546-7.093 0-23.459 19.095-42.554 42.609-42.554 23.459 0 42.5 19.149 42.5 42.554 0 2.728 0 4.91-0.546 7.093 4.91 1.637 9.275 3.765 13.639 6.002 7.692-10.366 20.131-16.967 33.77-16.967 23.459 0 42.609 19.095 42.609 42.5 0 13.639-6.601 26.187-16.967 33.88 2.127 4.364 3.819 8.729 5.455 13.093 2.237 0 4.91-0.6 7.146-0.6 23.459 0 42.5 19.149 42.5 42.554s-19.095 42.5-42.5 42.5c-2.237 0-4.91 0-7.146-0.546-1.582 4.91-3.328 9.275-5.455 13.639 10.311 7.692 16.967 20.186 16.967 33.825 0 23.514-19.203 42.554-42.609 42.554-13.639 0-26.133-6.547-33.77-16.967-4.364 2.237-8.729 4.364-13.639 5.51 0.546 2.728 0.546 4.91 0.546 7.093 0 23.459-19.095 42.5-42.5 42.5-23.567 0-42.609-19.095-42.609-42.5 0-2.182 0.546-4.364 0.546-7.093zM854.669 188.311c31.643 0 56.684-25.096 56.684-56.739 0-31.097-25.042-56.739-56.684-56.739-31.097 0-56.793 25.641-56.793 56.739 0 31.643 25.696 56.739 56.793 56.739z" />
<glyph unicode="&#xe622;" glyph-name="gear" d="M512 574.844c-70.293 0-126.844-56.551-126.844-126.844s56.551-126.844 126.844-126.844 126.844 56.551 126.844 126.844-56.551 126.844-126.844 126.844zM386.742 807.391c-13.741-4.757-26.954-10.042-40.167-16.384-22.726 30.654-59.722 50.209-100.947 50.209-70.293 0-126.844-56.551-126.844-126.844 0-41.224 19.555-78.22 50.209-100.947-6.342-13.213-11.627-26.426-16.384-40.167-6.871 1.057-13.741 1.586-21.141 1.586-70.293 0-126.844-56.551-126.844-126.844s56.551-126.844 126.844-126.844c7.399 0 14.27 0.529 21.141 1.586 4.757-13.741 10.042-26.954 16.384-40.167-30.654-22.779-50.209-59.722-50.209-100.947 0-70.293 56.551-126.791 126.844-126.791 41.224 0 78.22 19.502 100.947 50.156 13.213-6.29 26.426-11.627 40.167-16.384-1.057-6.871-1.586-13.794-1.586-21.141 0-70.24 56.551-126.791 126.844-126.791s126.844 56.551 126.844 126.791c0 7.399-0.529 14.323-1.586 21.141 13.741 4.757 26.954 10.042 40.167 16.384 22.779-30.654 59.722-50.156 100.947-50.156 70.293 0 126.791 56.499 126.791 126.791 0 41.224-19.502 78.168-50.156 100.947 6.29 13.213 11.627 26.426 16.384 40.167 6.871-1.11 13.794-1.586 21.141-1.586 70.24 0 126.791 56.551 126.791 126.844s-56.551 126.844-126.791 126.844c-7.399 0-14.323-0.529-21.141-1.586-4.757 13.741-10.042 26.954-16.384 40.167 30.654 22.726 50.156 59.722 50.156 100.947 0 70.293-56.499 126.844-126.791 126.844-41.224 0-78.168-19.555-100.947-50.209-13.213 6.342-26.426 11.627-40.167 16.384 1.11 6.871 1.586 13.741 1.586 21.141 0 70.293-56.551 126.844-126.844 126.844s-126.844-56.551-126.844-126.844c0-7.399 0.529-14.27 1.586-21.141zM512 701.688c140.057 0 253.688-113.631 253.688-253.688s-113.578-253.688-253.688-253.688c-140.057 0-253.688 113.578-253.688 253.688 0 140.057 113.631 253.688 253.688 253.688z" />
<glyph unicode="&#xe623;" glyph-name="bank" d="M81.92 177.664v-98.304h860.16v98.304h-860.16zM20.48 54.784v-98.304h983.040v98.304h-983.040zM536.064 375.859c16.333 3.072 29.645 9.677 39.936 19.917 10.189 10.24 15.309 22.067 15.309 35.84 0 12.288-3.994 22.528-12.8 31.232-8.704 9.216-22.989 15.872-42.445 20.48v-107.469zM488.448 668.672c-12.8-4.147-22.528-10.24-30.208-18.944-7.168-8.704-11.264-18.432-11.264-29.184 0-9.728 3.584-18.432 10.24-27.136 6.656-8.192 17.408-14.848 31.232-19.968v95.232zM20.48 656.896h122.88v-454.656h737.229v454.656h122.88l-491.469 282.624-491.52-282.624zM488.448 380.467v114.637c-42.496 10.24-73.216 26.112-93.184 46.592-19.968 20.992-29.696 46.029-29.696 75.776 0 30.259 11.264 55.296 33.792 75.776 22.016 20.48 52.224 32.256 89.088 35.277v26.675h47.616v-26.675c34.816-3.533 62.413-13.824 82.944-30.208 20.48-16.333 33.792-38.4 39.424-65.485l-82.944-9.216c-5.12 21.504-18.483 36.352-39.424 44.032v-107.52c52.224-11.776 88.013-27.136 107.008-46.080 18.893-18.944 28.621-43.008 28.621-72.704 0-33.28-11.725-60.877-35.789-84.019-24.115-22.477-57.395-36.813-99.84-42.445v-51.2h-47.616v50.688c-37.376 4.096-67.584 15.923-91.136 35.328-23.552 19.456-38.4 47.104-45.056 82.944l84.992 8.704c3.072-14.848 9.728-27.136 19.456-37.888 9.728-10.701 19.968-18.381 31.744-22.989z" />
<glyph unicode="&#xe624;" glyph-name="currency" d="M822.767 709.615l-13.794-56.551c-13.213 11.627-32.715 17.441-58.084 17.441s-45.928-7.928-61.836-23.783c-8.985-8.985-15.327-20.084-18.974-33.297h128.905l-7.452-31.182h-125.734c-0.529-3.171-0.529-6.871-0.529-12.156 0-4.228 0.529-9.513 0.529-14.27h119.445l-7.928-31.711h-106.76c4.228-14.27 9.989-25.369 17.97-33.825 15.855-15.855 35.939-23.783 60.779-23.783 30.073 0 53.909 7.928 71.826 23.783v-61.836c-20.084-8.985-43.867-13.213-70.821-13.213-45.4 0-82.977 13.741-112.045 40.696-20.084 17.97-33.297 41.224-39.639 68.179h-34.829l7.875 31.711h22.726c-0.529 3.171-0.529 6.342-0.529 10.042 0 6.342 0.529 11.627 0.529 16.384h-30.601l7.875 31.182h27.535c6.29 26.954 19.502 49.152 39.058 67.65 29.068 26.954 68.179 40.696 115.745 40.696 26.478 0 49.205-4.228 68.76-12.156zM722.878 860.243c-163.311 0-295.969-130.543-295.969-291.741s132.71-291.741 296.022-291.741c163.84 0 296.445 130.543 296.445 291.741s-132.658 291.741-296.498 291.741zM313.278 244.469c13.213 1.586 24.312 5.814 32.239 12.156 8.456 6.342 12.684 13.741 12.684 22.198 0 7.928-3.7 14.27-10.57 20.084-6.871 5.338-18.498 9.566-34.354 12.684v-67.122zM274.696 426.859c-10.042-2.114-18.498-6.342-24.312-11.627-6.342-5.814-8.985-11.627-8.985-18.498 0-5.814 2.643-11.627 7.928-16.384 5.814-5.285 14.27-9.513 25.369-12.684v59.194zM274.696 247.164v71.878c-34.354 6.342-59.194 15.908-75.578 28.593-15.855 13.213-23.783 29.016-23.783 47.514s8.985 34.354 26.954 47.038c18.498 12.684 42.281 20.084 72.407 21.669v16.913h38.582v-16.913c28.011-2.114 50.738-7.928 67.122-18.498 16.913-10.042 27.483-23.783 31.711-40.696l-67.122-5.814c-3.7 13.213-14.798 22.726-31.711 27.483v-67.174c42.281-7.347 71.35-16.86 86.677-28.487 15.327-12.156 23.255-26.954 23.255-45.452 0-20.612-9.513-38.053-29.068-52.323-19.555-14.323-46.509-22.726-80.863-26.426v-31.711h-38.582v31.182c-30.125 2.643-54.966 10.042-73.992 22.198s-31.182 29.597-36.468 51.742l68.707 5.338c3.171-9.566 8.456-16.86 15.855-23.783 7.928-6.29 16.384-11.099 25.897-14.27zM301.122 619.768c-163.84 0-296.498-131.072-296.498-292.269s132.658-291.741 296.498-291.741c146.927 0 269.015 105.703 292.217 244.122-111.993 52.852-188.628 165.426-188.628 296.022 0 8.456 0 16.913 1.057 24.84-32.768 12.156-68.179 19.027-104.646 19.027z" />
<glyph unicode="&#xe625;" glyph-name="money-list" horiz-adv-x="1184" d="M299.434 868.078v-63.237c19.198 3.387 38.96 5.081 59.285 5.081 120.829 0 227.542-60.414 291.345-151.884h497.997v210.039h-848.628zM691.843 343.037h456.215v209.983h-448.874c8.47-29.924 12.986-60.979 12.986-93.163 0.057-41.218-7.341-80.176-20.326-116.82zM299.434 114.308v-86.33h848.628v209.983h-516.007c-64.987-78.425-163.232-128.168-273.333-128.168-20.326 0-40.089 1.695-59.285 4.517zM457.526 600.447l-13.551-55.898c-13.551 11.293-32.749 16.938-57.593 16.938-25.408 0-45.735-7.905-61.545-23.716-9.034-8.47-15.244-19.76-18.633-33.312h128.168l-7.905-31.053h-124.782c-0.566-3.387-0.566-7.341-0.566-11.858s0-9.599 0.621-14.68h118.57l-7.341-31.619h-106.769c3.895-14.116 10.163-25.353 18.012-33.877 15.809-15.809 35.571-23.716 60.414-23.716 29.924 0 53.638 7.905 71.144 23.716v-61.545c-19.76-9.034-43.477-13.551-70.013-13.551-45.17 0-82.435 13.551-111.74 40.653-19.817 18.633-32.749 41.162-38.96 68.319h-35.007l7.963 31.619h22.529c0 3.387-0.566 6.775-0.566 10.163 0 6.211 0.566 11.858 0.566 16.375h-30.491l7.905 31.053h27.667c6.211 27.102 19.198 49.686 38.395 67.755 29.36 27.102 67.754 40.653 115.749 40.653 25.974 0 48.557-3.952 67.754-12.422zM358.717 751.201c-162.612 0-294.731-130.428-294.731-291.345 0-161.483 132.123-291.91 294.731-291.91s294.169 130.428 294.169 291.91c0 160.917-131.558 291.345-294.169 291.345z" />
<glyph unicode="&#xe626;" glyph-name="dollar" horiz-adv-x="1248" d="M645.177 325.537v103.837c23.139-4.514 40.124-10.722 50.284-19.752 10.158-8.466 15.236-18.623 15.236-30.531 0-12.923-6.152-24.266-18.060-34.369-12.415-9.595-28.33-15.746-47.462-19.188zM588.742 608.272v-91.987c-16.929 5.078-29.345 11.286-37.246 19.752-7.9 7.9-11.852 16.365-11.852 25.961 0 10.158 3.951 19.188 12.98 27.652s20.88 14.673 36.118 18.623zM588.742 330.053c-14.108 4.514-26.522 11.852-37.81 22.009-11.286 10.722-19.188 22.574-23.139 36.683l-101.015-7.9c7.9-34.426 25.395-61.513 53.613-80.136 27.652-19.243 63.771-30.531 108.353-33.918v-49.096h56.435v49.717c50.284 5.135 89.73 18.623 118.568 40.632 28.217 22.066 42.327 49.153 42.327 80.757 0 28.782-11.286 51.917-33.918 70.541-22.517 18.060-64.843 32.732-126.975 44.583v103.217c24.83-7.337 40.688-21.445 46.84-42.327l98.196 8.466c-6.716 26.522-22.574 47.97-46.84 63.771s-56.997 25.395-98.196 28.782v25.961h-56.435v-25.961c-44.018-2.822-79.571-14.673-106.096-33.86-26.522-19.752-40.067-44.018-40.067-73.362 0-28.217 11.852-52.484 35.553-72.801 23.139-19.752 60.383-34.988 110.611-44.583v-111.176zM88.176 786.602v-677.206h1083.528v677.206h-1083.528zM264.25 150.086h-135.441v135.384c72.235-5.643 129.797-63.205 135.441-135.384zM264.25 745.971c-5.643-72.235-63.205-129.797-135.441-135.441v135.441h135.441zM616.395 718.882c149.55 0 270.938-121.333 270.938-270.882s-121.333-270.882-270.938-270.882c-149.55 0-270.882 121.276-270.882 270.882 0 149.55 121.333 270.882 270.882 270.882zM995.63 150.086c5.643 72.18 63.205 129.742 135.441 135.384v-135.384h-135.442zM995.63 745.971h135.384v-135.441c-72.18 5.643-129.742 63.205-135.384 135.441z" />
<glyph unicode="&#xe627;" glyph-name="pay" horiz-adv-x="1248" d="M320.574 344.731l-10.905-44.899c-10.262 9.622-25.081 14.176-44.899 14.176-19.949 0-35.984-6.479-48.108-18.666-7.056-6.992-12.187-16.036-14.752-26.299h100.063l-5.773-25.015h-98.138v-9.557c0-3.913 0-7.761 0-11.545h93.007l-5.773-25.081h-83.385c3.271-10.905 7.697-19.949 14.176-26.299 12.123-12.765 28.159-19.242 47.402-19.242 23.091 0 41.693 6.479 55.804 19.242v-49.39c-16.036-7.056-33.932-10.262-55.099-10.262-35.342 0-64.848 10.905-87.233 32.071-15.394 14.752-25.657 32.713-30.724 53.879h-27.709l6.414 25.015h17.318v8.275c0 4.491 0 9.044 0.642 12.829h-24.374l6.479 25.015h21.167c5.067 21.167 15.33 38.55 30.724 53.237 23.091 21.167 53.237 32.071 90.441 32.071 20.527 0 37.843-3.143 53.237-9.557zM242.962 464.036c-127.644 0-230.976-103.269-230.976-230.912 0-127.579 103.269-230.976 230.976-230.976s230.912 103.333 230.912 230.976c0 127.644-103.204 230.912-230.912 230.912zM141.617 598.734c31.429 25.015 66.066 61.578 109.683 84.027 26.941 15.394 69.916 18.602 106.477 24.374 50.030 5.71 132.132 30.788 186.654 7.697 23.091-10.262 48.748-27.646 72.48-42.333l8.979-14.752c-24.374-3.847-55.162-9.622-76.971-11.545-84.027-8.979-161.638 19.884-203.973-18.602-26.941-25.657-16.036-60.934 0-78.254 7.056-7.056 18.602-19.242 35.278-22.449 75.689-7.056 162.281-0.642 242.459-17.959 61.513-11.545 127.644-41.693 198.198-58.369 57.087-11.545 113.531 11.545 157.085 28.864 14.752 4.491 78.318 48.108 100.704 68.631l68.631 73.123c9.622 8.979 62.86 24.374 92.301 51.955l-131.428 199.483-59.716-33.995c-10.262-4.491-26.941-10.905-37.203-19.884-56.445-42.976-160.356-17.318-214.941 5.773-51.12 25.657-108.207 46.825-164.654 62.86-59.011 18.602-127.001-7.761-175.108-15.458-69.852-14.048-139.83-23.668-200.124-52.533-53.879-26.363-134.698-101.409-139.83-106.54l-72.48-64.719c-10.905-37.203-1.282-37.843 10.262-50.030 39.126-41.051 55.162-19.242 87.233 0.642z" />
<glyph unicode="&#xe628;" glyph-name="purse" d="M540.645 201.923c14.27 2.695 25.897 8.985 34.882 18.551 8.985 8.985 13.213 20.084 13.213 33.297 0 11.099-3.7 21.141-11.151 29.121-7.399 8.404-20.031 14.746-36.943 18.974v-99.942zM498.84 474.109c-11.099-3.7-19.555-9.513-26.426-17.97-6.342-7.928-9.513-16.913-9.513-26.954 0-8.985 2.643-17.441 8.985-24.84 5.814-7.928 14.798-14.27 26.954-19.027v88.791zM418.029 915.948l-82.449-27.483c0 0 116.274-107.289 111.517-116.274-47.038-85.091-297.026-381.536-244.703-549.657 93.547-301.254 553.409-366.738 611.017-126.368 48.623 382.117-13.794 289.627-243.17 643.785-10.042 15.327 135.776 127.901 122.563 148.513-5.285 8.456-100.894 41.224-109.879 52.852-14.798 19.027-164.897-25.369-164.897-25.369zM498.84 206.151v106.813c-36.996 9.566-63.95 23.783-81.391 43.338-17.441 19.027-25.897 42.281-25.897 70.293 0 27.483 10.042 51.266 29.597 70.293 19.555 18.498 45.452 29.597 77.692 32.239v25.369h41.805v-25.369c30.125-3.171 54.385-12.156 72.354-27.483s29.65-35.411 34.354-61.308l-72.407-8.456c-4.175 20.084-15.855 33.825-34.301 41.224v-99.89c45.4-11.099 77.111-25.369 93.547-42.862s24.893-40.22 24.893-67.65c0-30.654-10.623-56.551-31.235-77.692-21.088-21.088-50.209-34.301-87.153-39.639v-47.514h-41.858v46.985c-32.768 3.7-59.194 14.323-79.806 32.821-20.084 17.97-33.297 43.867-39.11 77.111l73.992 7.928c3.171-13.741 8.985-25.369 17.441-35.411 7.98-9.461 17.494-16.913 27.483-21.141z" />
<glyph unicode="&#xe629;" glyph-name="wallet" horiz-adv-x="1248" d="M203.869 828.532c-45.981 0-83.506-37.525-83.506-83.506v-594.052c0-45.981 37.525-83.506 83.506-83.506h746.212c45.981 0 83.506 37.525 83.506 83.506v81.391h-313.939c-78.749 0-142.699 63.95-142.699 142.699v95.133c0 78.749 63.95 142.699 142.699 142.699h313.939v132.129c0 2.114 0 4.757-0.529 7.399h-836.641v25.369h830.299c-12.684 29.597-42.281 50.738-76.635 50.738h-746.212zM717.481 574.844c-49.628 0-89.795-65.536-89.795-115.217v-73.992c0-49.681 40.167-115.217 89.795-115.217h315.048c49.628 0 89.795 65.483 89.795 115.217v73.992c0 49.681-40.167 115.217-89.795 115.217h-315.048zM777.785 486.053h4.228c33.825 0 61.308-27.483 61.308-61.308v-4.228c0-33.825-27.535-61.308-61.308-61.308h-4.228c-33.878 0-61.308 27.483-61.308 61.308v4.228c0 33.825 27.43 61.308 61.308 61.308z" />
<glyph unicode="&#xe62a;" glyph-name="undo" d="M450.56 326.144v152.064c233.523-29.696 373.76-142.387 319.488-422.4-4.608-22.528-3.072-47.104-9.267-75.776 53.811-2.56 119.859 186.419 119.859 309.248 0 250.88-187.392 457.728-430.080 487.936v138.752l-307.2-294.912 307.2-294.912z" />
<glyph unicode="&#xe62b;" glyph-name="redo" d="M573.44 326.144v152.064c-233.472-29.696-373.76-142.387-319.488-422.4 4.608-22.528 3.072-47.104 9.216-75.776-53.76-2.56-119.808 186.419-119.808 309.248 0 250.88 187.392 457.728 430.080 487.936v138.752l307.2-294.912-307.2-294.912z" />
<glyph unicode="&#xe62c;" glyph-name="calendar" d="M157.625 772v-729h708.75v729h-70.875v81h-101.25v-81h-364.5v81h-101.25v-81h-70.875zM795.542 772v-81h-101.25v81h101.25zM329.75 772v-81h-101.25v81h101.25zM208.25 599.875h121.5v-121.5h-121.5v121.5zM370.25 599.875h121.5v-121.5h-121.5v121.5zM532.25 599.875h121.458v-121.5h-121.458v121.5zM694.25 599.875h121.5v-121.5h-121.5v121.5zM208.25 437.875h121.5v-121.5h-121.5v121.5zM370.25 437.875h121.5v-121.5h-121.5v121.5zM532.25 437.875h121.458v-121.5h-121.458v121.5zM694.25 437.875h121.5v-121.5h-121.5v121.5zM208.25 275.875h121.5v-121.5h-121.5v121.5zM370.25 275.875h121.5v-121.5h-121.5v121.5zM532.25 275.875h121.458v-121.5h-121.458v121.5zM694.25 275.875h121.5v-121.5h-121.5v121.5z" />
<glyph unicode="&#xe62e;" glyph-name="edit" d="M57.344 847.36v-860.16h860.16v535.040l-86.016-86.528v-362.496h-688.128v688.128h351.744l86.477 86.016h-524.237zM315.392 257.536h208.896l442.368 442.368-208.896 208.896-442.368-442.368v-208.896zM548.915 380.467l294.912 294.861 12.288-12.288-294.963-294.912-12.237 12.339zM487.424 441.856l294.861 294.912 12.288-12.288-294.912-294.912-12.237 12.288zM425.984 503.296l294.912 294.912 12.288-12.288-294.912-294.912-12.288 12.288zM352.256 318.925v122.88l49.152 49.152 61.44-61.44-110.592-110.592zM376.832 294.4l110.592 110.592 61.491-61.44-49.203-49.152h-122.88z" />
<glyph unicode="&#xe62f;" glyph-name="doc" d="M100.352 939.52v-983.040h823.296v663.040l-53.248-0.512v-589.824h-716.8v825.344h450.56v-234.496h319.488l-317.44 317.44v2.048h-2.048z" />
<glyph unicode="&#xe630;" glyph-name="doc-filled" d="M813.056 116.224v73.728h-614.4v-73.728h614.4zM813.056 239.104v73.677h-614.4v-73.677h614.4zM813.056 361.984v73.728h-614.4v-73.677h614.4zM813.056 484.864v73.728h-614.4v-73.728h614.4zM542.771 607.744v73.728h-344.115v-73.728h344.115zM542.771 730.624v73.728h-344.115v-73.728h344.115zM100.352 939.52v-983.040h823.296v663.040l-53.248-0.512v-589.824h-716.8v825.344h450.56v-234.496h319.488l-317.44 317.44v2.048h-505.856z" />
<glyph unicode="&#xe631;" glyph-name="doc-checked" d="M856.064 116.224v61.491h-369.664l-61.44-61.491h431.104zM856.064 239.104v61.44h-246.784l-61.389-61.44h308.173zM856.064 361.984v61.44h-123.392l-61.952-61.44h185.344zM439.296 423.424h-197.632v-61.44h136.192l61.44 61.44zM856.064 484.864v61.44h-240.64l61.44-61.44h179.2zM562.125 546.304h-320.461v-61.44h259.072l61.389 61.44zM585.728 607.744v61.44h-344.064v-61.44h344.064zM585.728 730.624v61.44h-344.064v-61.44h344.064zM143.36 939.52v-492.544l53.248-53.299v460.8h450.56v-234.496h319.488l-317.44 317.44v2.099h-505.856zM143.36 154.112v-197.632h823.296v663.040l-53.248-0.512v-589.824h-576l-34.304-34.816-34.304 34.816h-72.192v71.68l-53.248 53.248zM122.368 378.88l-65.024-63.488 243.2-228.352 346.624 329.728-65.024 63.488-281.6-266.24-178.176 164.864z" />
<glyph unicode="&#xe632;" glyph-name="mail" horiz-adv-x="1152" d="M162.563 816.64c-35.328 0-65.536-47.616-76.288-79.36l486.912-264.704 484.915 270.848c-12.339 28.672-41.011 73.216-74.291 73.216h-821.248zM81.668 646.656v-395.264l250.88 238.592-250.88 156.672zM82.179 153.6c3.584-41.523 38.4-74.24 80.384-74.24h821.248c41.984 0 76.8 32.768 80.384 74.24l-311.808 311.808-179.2-115.712-183.808 111.104-307.2-307.2zM1064.707 251.392v415.744l-257.536-170.496 257.536-245.248z" />
<glyph unicode="&#xe633;" glyph-name="mail-open" d="M1003.52 583.168v10.24l-287.181-189.952 287.181-274.944v454.656zM30.208 651.264l481.792-313.856 481.792 313.856c-13.773 25.088-481.792 288.256-481.792 288.256s-467.968-262.656-481.792-288.256zM20.992 30.72c3.584-41.523 38.4-74.24 80.384-74.24h821.248c41.984 0 76.8 32.717 80.384 74.189l-341.504 341.504-149.504-96.154-153.088 92.621-337.92-337.92zM302.080 397.824l-281.6 175.104v-444.416l281.6 269.312z" />
<glyph unicode="&#xe634;" glyph-name="safe" d="M543.713 692.575v-108.593c43.245-13.454 74.477-53.816 74.477-101.385 0-14.895-3.316-28.83-8.696-41.804l77.888-77.841c23.017 34.068 36.999 75.391 36.999 119.644 0 106.19-78.321 194.602-180.668 209.978zM643.657 316.343l-75.919 75.919c-16.337-10.091-35.077-15.857-55.738-15.857s-39.401 5.766-55.738 15.857l-75.919-75.919c36.037-28.83 81.685-46.128 131.657-46.128s95.62 17.298 131.657 46.128zM336.617 362.952l77.841 77.841c-5.286 12.974-8.649 26.908-8.649 41.804 0 47.57 31.233 87.931 74.478 101.385v108.593c-102.347-15.376-180.668-103.788-180.668-209.978 0-44.206 13.935-85.576 36.999-119.644zM512 747.832c146.553 0 265.236-118.684 265.236-265.236s-118.683-265.236-265.236-265.236-265.236 118.683-265.236 265.236c0 146.553 118.684 265.236 265.236 265.236zM208.805 817.024c-36.518 0-65.829-28.83-65.829-64.387v-563.146c0-35.557 29.31-64.434 65.829-64.434h606.438c36.518 0 65.781 28.877 65.781 64.434v563.146c0 35.557-29.263 64.387-65.781 64.387h-606.438zM138.171 909.28c-48.050 0-87.451-39.401-87.451-87.451v-701.53c0-48.050 39.401-87.451 87.451-87.451h27.869v-46.128h115.32v46.081h461.28v-46.081h115.32v46.081h27.822c48.050 0 87.451 39.401 87.451 87.451v701.577c0 48.050-39.401 87.451-87.451 87.451h-747.611zM185.26 851.62h653.48c42.764 0 76.927-34.115 76.927-75.919v-609.227c0-41.851-34.163-75.919-76.927-75.919h-653.48c-42.765 0-76.88 34.068-76.88 75.919v609.227c0 41.803 34.115 75.919 76.88 75.919z" />
<glyph unicode="&#xe635;" glyph-name="safe-box" d="M543.764 720.133c7.928 1.586 14.746 3.7 19.502 7.928 5.338 3.7 7.928 8.456 7.928 13.741 0 4.757-2.114 8.985-6.29 12.684-4.809 3.171-11.68 5.814-21.141 7.875v-42.229zM520.456 834.345c-6.342-1.057-11.627-3.7-15.327-7.399-3.7-3.224-5.285-6.871-5.285-11.099 0-3.7 1.533-7.452 4.757-10.57 3.647-3.224 8.456-5.814 15.855-7.928v36.996zM520.456 722.247v44.977c-21.141 3.647-36.468 9.989-46.509 17.97-9.513 7.875-14.27 17.97-14.27 29.544 0 11.68 5.338 21.141 16.437 29.068 11.099 8.456 25.845 12.684 44.395 13.794v10.518h23.255v-10.518c16.913-1.11 30.654-4.757 40.696-11.68 10.57-6.29 16.913-14.746 19.555-25.316l-40.748-3.7c-2.59 8.456-8.985 14.323-19.502 17.441v-42.281c25.897-4.228 43.338-10.57 52.852-17.97 9.513-7.452 14.27-16.913 14.27-28.011 0-13.213-6.29-23.783-17.97-32.768-4.228-3.171-9.513-6.342-15.327-8.456 38.053-3.647 76.635-11.099 114.688-24.312 15.855 27.007 24.84 58.665 24.84 91.962 0 100.947-81.339 182.867-180.753 182.867-99.89 0-180.753-81.92-180.753-182.867 0-30.654 7.399-59.194 20.084-84.563 7.875 4.228 14.217 7.875 20.031 7.875 20.084 6.871 56.075 9.566 86.148 10.57-2.643 1.11-4.757 2.167-6.871 3.752-11.627 7.875-19.027 18.498-22.198 32.187l41.753 3.7c2.114-5.814 5.338-10.57 10.042-14.798s10.042-7.347 15.855-8.985zM267.297 439.544c0-25.369-15.327-35.411-35.411-35.411s-35.411 20.084-35.411 35.411c0 25.316 25.316 35.411 35.411 35.411 30.178 0 35.411-25.421 35.411-35.411zM302.708 676.266c-25.369 10.094-65.536 5.338-80.863 5.338-30.073 0-70.821 4.757-100.947-15.327l85.62-125.787c-35.411-25.369-55.494-80.863-75.578-111.041-25.369-40.115-70.821-40.115-100.947-45.4v-111.041c0-9.989 5.338-35.411 5.338-50.156 34.829-10.042 75.578 0 100.894-20.136 44.977-40.696 80.387-100.947 115.745-141.642 10.042-110.46 5.285-115.692 0-120.449h96.19c50.156 0 55.494 14.746 95.661 60.251h151.684c30.125-40.22 34.882-50.209 70.293-50.209 10.042 0 80.863 4.757 116.274 4.757 0 40.167-20.084 85.62-5.285 116.274 9.989 30.073 50.685 44.977 70.821 70.293 40.167 50.209 75.578 146.452 75.578 191.851 0 14.798-24.893 100.365-24.893 110.46 0 15.327 30.125 55.494 50.262 76.106 5.285 9.989 20.031 9.989 25.316 20.084 10.042 4.757 20.084 40.167 20.084 45.4-9.989-15.327-30.125-35.411-45.4-45.4 0 35.411-15.38 105.703-70.821 105.703-24.893 0-45.505-10.042-45.505-45.452 0-30.125 15.38-55.494 60.779-75.578 0 5.285 5.285 5.285 5.285 20.084 0 9.989-35.411 40.696-35.411 50.738 0 14.798 10.042 20.084 14.851 24.84 30.654-4.757 45.4-40.167 45.4-65.536 0-4.757-20.084-65.483-40.167-65.483-15.327 0-10.042 5.285-15.327 9.989-95.661 126.368-226.733 166.483-343.007 166.483-15.327 0-85.62 0-116.274-10.042-10.042 0-25.369-14.746-40.167-14.746-9.989-0.053-45.4 30.020-65.483 34.777z" />
<glyph unicode="&#xe637;" glyph-name="locker" d="M214.016 570.88c-38.912 0-70.656-31.744-70.656-70.656v-473.088c0-38.912 31.744-70.605 70.656-70.605h595.968c38.912 0 70.656 31.693 70.656 70.605v473.088c0 38.912-31.744 70.656-70.656 70.656h-39.936v122.88c0 135.68-122.368 245.76-258.048 245.76s-258.048-110.080-258.048-245.76v-122.88h-39.936zM708.608 570.88h-393.216v103.424c0 108.544 88.064 196.608 196.608 196.608s196.608-88.064 196.608-196.608v-103.424zM413.696 349.696c0 54.272 44.032 98.304 98.304 98.304 54.323 0 98.304-44.032 98.304-98.304 0-41.011-24.576-75.776-59.904-90.675l47.616-155.136h-172.032l47.616 155.136c-35.328 14.899-59.904 49.664-59.904 90.675z" />
<glyph unicode="&#xe638;" glyph-name="phone" d="M258.675 664.495c-170.953-190.094-269.96-395.304-212.536-591.403 183.492-11.222 282.5 100.392 326.722 172.271-3.301 3.301-6.601 6.665-10.562 9.834-35.643 31.682-29.701 26.402-30.363 25.807-83.166 94.388-73.263 137.884 49.505 279.136 128.712 136.63 171.613 151.15 275.9 78.547-0.661-0.661-6.601 4.619 28.977-27.722 4.026-3.961 8.647-7.921 13.268-11.222 69.899 57.422 162.966 170.953 128.645 353.125-202.041 27.722-396.030-95.045-564.342-282.5l-2.639-3.301-2.573-2.573zM955.684 907.394c-9.834 9.241-21.121 15.841-33.661 21.121v-2.639c-6.601-185.473-91.748-304.943-149.172-365.667 41.585-9.241 87.126 5.28 138.61 62.046 89.767 97.687 109.568 225.078 44.223 285.141zM421.705 176.787c-48.185-58.744-154.452-160.392-339.266-188.114 4.619-7.921 11.222-14.587 17.82-20.526 65.343-57.358 188.114-27.063 275.239 67.986 50.165 55.51 60.062 101.053 46.204 140.655z" />
<glyph unicode="&#xe63a;" glyph-name="cards" d="M90.825 754.222c-47.038-15.327-72.935-67.65-57.608-116.274l73.992-297.502 19.027 30.073-6.342 78.749c0 58.137 46.509 105.703 103.589 105.703h666.459l-95.661 336.665c-15.38 48.623-65.536 75.578-112.627 60.251l-590.828-197.665zM574.946 744.709l139.581 51.266 40.696-103.061-139-55.494-41.277 107.289zM272.687 497.892c-49.152 0-89.319-41.224-89.319-91.962v-374.189c0-50.738 40.167-91.909 89.319-91.909h633.11c49.152 0 89.319 41.172 89.319 91.909v374.189c0 50.738-40.22 91.962-89.319 91.962h-633.11zM313.859 426.542h550.714c40.696 0 60.727-21.141 60.727-62.365v-20.084h-672.167v20.084c0 41.224 20.031 62.365 60.727 62.365zM925.352 239.5v-166.007c0-41.172-20.084-62.365-60.727-62.365h-550.766c-40.696 0-60.779 21.141-60.779 62.365v166.007h672.273z" />
<glyph unicode="&#xe63b;" glyph-name="card" horiz-adv-x="1248" d="M1032.93 250.177c1.18-1.18 3.372-2.303 6.743-2.303h7.867c2.247 0 4.495 1.18 5.675 2.303 1.123 1.123 1.629 3.372 1.629 5.62v11.804c0 2.247-0.563 3.878-1.629 5.057-1.18 1.687-2.867 2.247-5.057 2.247h-9.611c-2.867 0-4.495-0.563-5.675-2.247-1.18-1.18-1.687-2.811-1.687-4.495v-12.365c0.057-2.247 0.562-3.933 1.742-5.62zM1058.22 233.825c-1.687 2.867-4.495 4.495-8.431 4.495h-12.365c-3.933 0-6.743-1.629-9.555-5.057-1.18-2.191-1.687-5.057-1.687-7.868v-30.348c0-1.629 0-3.427 1.123-5.057 1.18-1.123 2.867-1.687 5.675-1.687h20.793c2.247 0 3.933 0.618 5.057 1.687 1.123 1.629 1.629 3.428 1.629 5.62v29.786c-0.057 3.933-0.618 6.8-2.247 8.431zM701.916 544.099h46.084l-14.050 37.092c-4.495 11.804-7.868 20.793-10.117 28.66-1.687-8.993-3.878-17.422-7.307-26.413l-14.612-39.34zM830.556 563.77h38.778c7.868 0 14.666 1.123 19.162 2.811 4.44 1.687 7.813 4.495 10.117 7.868 2.811 3.933 3.933 7.867 3.933 12.365 0 6.183-2.303 11.804-7.362 15.735-4.495 3.933-11.804 6.183-21.356 6.183h-43.329v-44.96zM965.49 504.2h28.66c8.993 0 15.735 1.123 20.85 2.811 5.057 1.687 9.555 3.933 12.308 6.743 3.933 4.495 7.362 10.117 10.173 17.422 2.247 6.743 3.372 15.735 3.372 25.852 0 14.050-2.191 25.289-7.307 32.597-4.44 7.868-10.117 12.926-16.859 15.173-4.495 2.247-12.42 2.811-23.042 2.811h-28.1v-103.407zM552.426 267.6l-37.653-53.39h37.653v53.39zM796.892 195.104c0-1.629 0-3.427 1.123-5.057 1.18-1.123 2.867-1.687 5.675-1.687h20.232c2.191 0 3.933 0.618 5.62 1.687 1.123 1.123 1.687 3.428 1.687 6.126v34.9c0 2.191-0.618 4.495-1.687 6.687-1.123 2.247-3.427 3.428-7.307 3.428h-12.983c-3.427 0-6.183-0.563-8.431-2.303-2.867-2.191-3.933-4.44-3.933-7.813v-35.967zM150.601 785.196c-37.092 0-67.439-30.348-67.439-67.439v-539.513c0-37.092 30.348-67.439 67.439-67.439h944.148c37.036 0 67.382 30.348 67.382 67.439v539.513c0.057 37.092-30.292 67.439-67.382 67.439h-944.148zM225.346 555.903h73.622v-40.464h-40.464l-39.34 39.339c1.687 0.563 3.933 1.123 6.183 1.123zM325.942 555.903h73.622c2.247 0 4.495-0.563 6.126-1.123l-39.284-39.339h-40.464v40.464zM419.232 541.291c0.563-1.687 1.123-3.933 1.123-6.183v-120.265c0-2.247-0.618-4.495-1.18-6.183l-52.772 52.828v26.976l52.828 52.828zM405.746 395.172c-1.687-0.563-3.933-1.123-6.183-1.123h-73.622v40.464h40.464l39.339-39.339zM298.968 394.049h-73.622c-2.247 0-4.495 0.563-6.126 1.123l39.283 39.339h40.464v-40.464zM205.675 408.661c-0.563 1.687-1.18 3.933-1.18 6.183v120.265c0 2.247 0.618 4.495 1.18 6.183l52.828-52.828v-26.976l-52.828-52.828zM271.99 501.951h80.925v-53.951h-80.925v53.951zM1070.019 244.56c0.563 0 2.247 0 5.057-1.18 2.247-0.563 3.878-2.191 5.675-4.495 2.754-3.878 4.495-8.374 4.495-12.869v-31.977c0-5.675-1.742-9.555-3.933-11.297-3.989-2.811-7.924-4.495-12.476-4.495h-52.266c-4.495 0-8.431 1.687-11.24 4.44-2.811 2.303-3.877 6.237-3.877 11.297v29.786c0 4.495 1.123 8.992 3.372 12.926 2.247 2.811 3.877 4.495 6.743 5.62 2.811 1.123 4.495 1.687 5.62 1.687-2.191 0-5.057 1.18-7.307 3.372-1.687 1.687-2.247 4.495-2.247 8.992v12.926c0 5.62 1.123 8.992 3.427 11.184 2.811 3.428 6.687 4.495 11.184 4.495h40.521c5.62 0 10.117-1.123 12.365-4.495 2.811-2.191 3.877-6.126 3.877-11.184v-12.926c0-3.933-1.123-6.687-2.754-8.43-0.618-1.123-1.742-1.629-3.428-2.191-1.123-0.563-2.247-1.18-2.811-1.18zM638.971 535.671l17.983-4.495c-3.933-14.612-10.678-25.853-20.232-33.157-9.555-7.867-21.356-11.804-35.407-11.804-14.612 0-26.413 2.811-35.407 8.993-9.555 5.62-16.297 14.612-21.356 25.853-4.495 11.24-6.743 23.042-6.743 35.967 0 14.050 2.811 26.413 7.868 37.092 5.62 10.117 12.926 17.983 23.042 23.604s20.793 8.431 32.597 8.431c13.488 0 24.672-3.933 34.282-10.678 8.937-6.743 15.681-16.297 19.108-28.66l-17.422-4.495c-3.372 10.117-7.868 16.859-13.488 21.356-6.183 4.495-13.488 6.743-22.479 6.743-10.678 0-19.108-2.247-26.413-7.307-6.743-5.057-11.804-11.804-14.612-20.232-2.811-7.868-3.933-16.859-3.933-25.853 0-11.24 1.629-21.356 5.057-29.786 3.372-8.993 8.43-15.173 15.173-19.108 7.307-4.495 14.612-6.743 23.042-6.743 10.117 0 18.547 2.811 25.289 8.993 7.307 5.62 11.804 14.050 14.050 25.289zM662.576 488.464l52.266 135.44h19.725l55.020-135.44h-20.793l-15.173 41.027h-57.323l-14.612-41.027h-19.108zM813.191 488.464v135.44h59.572c12.42 0 21.412-1.687 27.536-3.933 6.183-2.247 11.24-6.743 15.231-12.926 3.372-6.183 5.62-12.926 5.62-20.232 0-9.555-3.372-17.422-9.555-24.165s-15.735-10.678-28.66-12.365c4.495-2.811 8.374-5.057 10.678-6.743 5.62-5.057 10.117-11.24 15.173-17.983l23.042-37.092h-22.479l-17.477 28.1c-5.62 8.43-9.555 14.612-12.869 18.547-3.372 4.495-6.743 7.307-8.936 8.992-2.923 1.687-5.731 3.372-8.542 3.933-2.247 0-5.057 0.563-10.117 0.563h-20.85v-60.133h-17.364zM947.451 488.464v135.44h46.646c10.117 0 18.547-1.123 24.165-2.247 7.362-1.687 14.050-5.057 19.725-9.555 7.307-6.183 12.365-14.050 15.735-23.042 3.933-9.555 5.62-20.232 5.62-32.033 0-10.678-1.123-19.67-3.933-27.536-2.191-7.868-5.057-14.612-8.993-19.67s-7.867-9.555-12.365-12.365c-4.495-2.811-9.555-5.057-16.354-6.743-6.126-1.687-13.488-2.247-21.3-2.247h-48.949zM221.411 285.022v-106.779h-24.165v79.803h-20.793v8.937c7.924 0 14.666 1.742 20.793 5.675 3.933 2.811 6.743 7.307 8.431 12.365h15.735zM299.529 210.279c-1.123-2.191-1.687-4.495-1.687-6.687v-15.231h57.886v-10.117h-82.613v24.165c0 3.933 1.123 7.307 4.495 10.173 2.247 2.191 5.057 4.495 8.937 6.687 3.428 2.303 8.431 5.057 15.231 8.43 6.183 2.811 10.678 5.057 12.869 6.126l6.183 3.933c2.811 1.123 5.057 2.867 6.183 3.933 1.629 1.123 2.811 2.247 3.372 3.428 1.18 1.123 1.18 2.247 1.18 3.933v19.108c0 1.687 0 3.372-1.18 4.495-1.123 1.687-3.372 2.247-6.743 2.247h-14.558c-2.811 0-4.495-0.563-5.62-2.247-1.687-1.18-2.247-2.811-2.247-5.057v-21.917h-24.165v25.797c0 3.933 1.18 6.8 2.867 8.993 2.191 3.428 5.565 4.553 10.061 4.553h51.701c3.933 0 7.307-0.563 9.555-2.191 3.428-2.303 5.057-5.057 5.057-8.431v-19.108c0-3.933-0.563-7.362-2.247-10.117-1.687-2.867-5.057-5.675-8.992-7.924-3.933-2.811-10.117-6.126-18.547-10.117-8.431-4.495-15.231-7.924-19.162-10.117-4.44-2.247-6.687-4.44-7.813-6.743zM406.868 229.328v10.173h21.356c4.495 0 7.868 1.18 9.555 3.878 1.123 2.303 1.687 5.675 1.687 9.048v13.488c0 2.247-0.563 4.495-1.687 6.183-1.123 2.247-3.372 2.811-6.743 2.811h-17.422c-3.428 0-6.183-0.563-6.743-2.247-1.687-1.687-2.247-3.878-2.247-6.183v-14.050h-24.165v19.108c0 3.427 1.123 6.8 3.878 10.173 2.303 2.191 5.675 3.316 10.734 3.316h52.828c5.675 0 10.173-1.629 12.42-4.495 2.247-2.754 3.372-5.62 3.372-9.555v-20.175c0-3.428-0.563-7.362-2.811-10.117-1.18-2.303-2.303-3.989-4.552-4.553-2.247-1.123-3.933-1.687-5.057-1.687 1.123 0 2.811-0.618 5.057-2.247 2.247-1.123 3.933-3.428 5.62-5.62 1.18-2.867 1.687-6.183 1.687-10.173v-22.423c0-5.057-1.123-8.992-3.372-11.297-2.811-2.754-6.743-4.44-11.804-4.44h-52.828c-4.495 0-8.431 1.687-11.24 4.44-2.811 2.303-3.933 6.293-3.933 11.297v21.3h24.165v-20.175c0-1.123 0.563-2.811 1.687-5.057 1.123-1.123 2.811-1.687 5.62-1.687h20.793c2.247 0 3.933 0.618 5.057 1.687 1.18 2.247 1.687 3.933 1.687 5.62v19.67c0 3.933-0.563 7.362-1.687 9.555-2.247 2.867-5.62 4.495-10.117 4.495h-20.793zM577.152 204.095v-25.853h-24.727v25.853h-50.017v11.184l49.454 69.687h25.289v-70.811h9.555v-10.117h-9.555zM701.354 245.178c-3.933 0-6.8-1.18-8.992-2.867-2.867-1.629-3.933-4.495-3.933-7.868v-2.811h-24.165v53.39h83.736v-10.117h-59.009v-24.672c0 0.563 0.563 1.629 1.123 2.191 1.18 1.18 1.742 1.687 2.867 1.687 2.191 0.618 4.495 1.18 7.868 1.18h30.348c6.126 0 11.24-2.303 14.050-5.62 1.687-2.303 2.867-6.8 2.867-13.488v-42.151c0-5.675-1.742-9.555-3.933-11.297-4.046-2.811-7.981-4.495-12.533-4.495h-52.266c-4.495 0-8.431 1.687-11.24 4.44-2.811 2.303-3.878 6.237-3.878 11.297v19.108h24.672v-17.983c0-1.629 0-3.428 1.123-5.057 1.18-1.123 2.867-1.687 5.675-1.687h20.793c2.247 0 3.933 0.618 5.057 1.687 1.123 2.247 1.629 3.933 1.629 5.62v38.777c0 2.811-0.563 5.057-1.629 7.307s-3.427 3.428-7.307 3.428h-12.926zM772.165 269.286c0 5.057 1.123 8.992 3.933 11.184 2.754 3.428 6.687 4.495 11.747 4.495h51.701c5.675 0 9.555-1.123 12.42-4.495 2.191-2.191 3.933-6.126 3.933-11.184v-10.117h-24.727v8.43c0 2.247-0.618 3.878-1.687 5.057-1.629 1.687-3.427 2.247-5.62 2.247h-20.232c-2.811 0-4.495-0.563-5.675-2.247-1.123-1.18-1.123-2.811-1.123-4.495v-21.356c0 0 0 0.563 1.123 1.687 1.18 1.18 2.303 1.687 3.427 1.687 1.687 0.563 3.933 1.123 7.307 1.123h30.348c6.183 0 11.24-2.247 14.050-5.62 1.687-2.303 2.867-6.8 2.867-13.488v-38.215c0-5.057-1.742-8.993-3.933-11.297-2.867-2.754-6.743-4.44-12.42-4.44h-52.266c-4.495 0-8.431 1.687-11.184 4.44-2.867 2.303-3.933 6.237-3.933 11.297v75.308zM921.654 178.245l35.35 89.919c0.618 1.687 1.18 3.372 1.18 4.495-0.563 1.687-3.372 2.247-8.992 2.247h-26.976c-1.18 0-2.303-0.563-3.428-2.247-1.123-1.18-1.629-3.372-1.629-6.183v-15.681h-23.604v19.108c0 4.495 1.123 8.43 3.372 11.804 2.247 2.247 6.743 3.372 13.432 3.372h56.818c1.687 0 3.372-0.563 5.057-1.123 1.687-1.123 2.247-2.247 3.372-3.933 0 0 0-1.123 0-2.191v-2.303l-0.563-2.191-0.563-2.303-26.47-92.785h-26.359z" />
<glyph unicode="&#xe63c;" glyph-name="question" d="M512 909.512c-254.793 0-461.512-206.72-461.512-461.512s206.72-461.512 461.512-461.512 461.512 206.72 461.512 461.512-206.72 461.512-461.512 461.512zM439.408 330.218h128.358v-112.974h-128.358v112.974zM563.439 361.948h-120.185v12.018c0 20.72 2.404 37.017 7.163 49.997 4.326 12.499 11.538 24.036 20.672 34.614s29.326 29.326 61.535 55.766c16.874 13.942 25.48 26.922 25.48 38.46s-3.366 20.672-10.096 26.922c-7.212 6.25-17.307 9.615-31.248 9.615-15.337 0-27.355-4.807-37.451-14.903-9.615-9.614-15.864-26.922-18.797-51.439l-122.062 14.903c4.326 45.19 20.672 81.245 49.036 108.647s72.111 40.863 131.243 40.863c46.151 0 83.169-9.134 111.1-28.364 38.46-25.96 57.689-60.574 57.689-103.841 0-17.788-4.855-35.094-14.951-51.921-10.096-16.345-30.287-36.536-60.574-60.574-21.153-16.826-34.614-30.768-40.382-40.863-5.288-10.096-8.172-23.556-8.172-39.902z" />
<glyph unicode="&#xe63d;" glyph-name="info" d="M512 909.512c-254.793 0-461.512-206.72-461.512-461.512s206.72-461.512 461.512-461.512 461.512 206.72 461.512 461.512-206.72 461.512-461.512 461.512zM500.462 619.626l23.556 56.247 105.235 63.939-29.759-73.073-99.033-47.112zM635.551 308.585l-6.778-40.863c-50.478-54.852-96.149-81.726-136.53-81.726-36.536 0-54.804 18.749-54.804 56.776 0 11.538 2.404 30.768 7.692 56.728l23.076 115.379c6.25 32.21 9.614 53.363 9.614 63.939 0 13.942-5.288 20.672-14.903 20.672-9.134 0-29.806-3.846-60.574-11.057l4.374 31.681 175.999 55.285-25.527-115.379-32.21-162.010c-4.807-25.046-7.163-40.911-7.163-47.545 0-10.143 4.326-15.384 12.499-15.384 19.663-0.047 54.757 24.47 105.235 73.506z" />
<glyph unicode="&#xe63e;" glyph-name="nums" d="M861.696 595.456c-0.512 0-0.512-1.024-0.512-1.536 0.512 0 0.512 0.512 0.512 1.536zM20.48 816.64v-737.28h983.040v737.28h-983.040zM857.6 586.24c1.485 3.072 3.123 5.632 3.584 7.68h-83.507c-1.485 0-2.509-1.536-3.072-4.608-1.075-3.584-0.512-10.752 0-20.992l0.563-7.68c0.512-6.656-2.611-12.8-8.704-17.408-4.608-3.072-10.752-4.608-17.408-4.608-7.168 0-13.312 1.536-18.432 5.12-5.581 4.608-7.629 10.752-6.605 17.92 0.512 9.728 1.024 19.456 1.024 29.184 0 7.68-0.512 17.408-1.024 29.184-1.587 9.728 0 16.384 3.533 19.456 4.096 4.096 12.8 5.12 26.675 3.584 14.285-1.536 37.888-2.048 70.605-2.048 26.675 0 49.715 1.024 68.659 2.56 15.872 1.536 26.112-1.024 32.256-7.68 5.12-7.168 5.12-17.408-1.536-31.744l-66.56-115.2c24.115-6.656 41.523-18.432 52.224-34.816 10.291-14.848 14.899-35.328 14.899-61.44 0-34.816-10.803-62.464-32.819-84.019-20.48-18.893-45.619-28.621-75.264-28.621-28.672 0-49.664 6.605-62.464 19.405-27.699 17.408-41.011 41.984-41.011 74.803 0 7.168 2.611 12.8 8.704 17.408 5.632 3.584 11.776 5.12 18.995 5.12 7.117 0 13.824-1.485 18.893-5.12 6.144-4.608 9.216-10.803 8.704-18.432-1.485-15.872 2.048-27.648 10.803-34.304 7.629-6.144 20.429-9.267 37.325-9.267 15.872 0 27.648 3.123 35.84 9.267 11.776 12.8 17.92 30.771 17.92 53.76 0 21.504-5.12 36.864-14.285 46.080-17.459 9.728-37.939 13.824-62.515 11.776-7.219-0.512-12.8 1.536-16.896 7.168-3.584 4.608-5.12 10.752-5.12 17.92 0 6.656 1.485 12.288 5.12 17.408 4.096 5.632 9.216 7.68 16.896 6.656 8.192 0 13.312 0.512 14.848 1.024 2.048 1.024 4.096 3.072 6.144 6.144l43.008 79.36zM181.76 572.928c0 9.728-4.096 16.384-11.776 18.944s-22.016 3.072-43.52 1.536c-9.216-1.024-15.872 1.024-19.968 5.632-5.12 5.632-7.168 11.776-7.168 19.456 0 7.168 1.536 12.8 5.632 17.92 4.608 6.144 10.752 8.192 18.944 6.656 18.944-2.048 37.376-3.584 55.296-3.584s36.352 1.536 55.808 4.608v-301.619c0-4.608 5.12-7.168 15.36-7.629 7.168-0.563 22.528 0.512 45.056 3.072h0.512c7.168 1.075 12.8-1.024 17.408-6.605 4.096-5.171 6.656-11.315 6.656-19.507 0-6.093-1.536-11.776-4.608-15.923-4.608-6.093-11.264-8.704-18.944-8.141-27.648 1.536-57.344 2.048-89.088 2.56-33.792 0-61.952-1.024-84.48-2.56-7.68-1.075-14.336 1.075-19.968 6.144-4.096 4.608-6.144 10.752-6.656 18.381-0.512 6.707 1.024 12.288 3.584 16.384 4.608 7.219 11.264 10.24 19.456 8.704 17.92-2.048 31.232-2.56 40.96-2.048 14.336 0.563 21.504 3.072 21.504 7.168v230.451zM407.552 324.096c-0.512 18.381 3.072 33.28 10.752 43.008 6.144 8.192 21.504 19.456 46.592 34.816l15.36 14.848c28.16 24.064 48.64 46.592 61.44 66.56 12.8 22.016 18.944 43.52 18.944 64.512 0 18.432-4.096 31.744-12.288 40.96-11.776 8.704-24.576 12.8-37.888 12.8-14.336 0-25.088-3.584-32.768-11.776-8.192-8.192-10.752-17.408-7.68-28.16 4.096-13.824 4.608-24.064 1.536-31.744-2.56-6.656-8.192-11.776-17.408-15.36-14.336-3.072-25.088-1.536-32.256 5.12-6.656 5.632-9.728 14.848-10.24 27.136-2.048 33.28 7.68 59.392 28.672 78.848 18.432 17.408 40.96 25.6 67.072 25.6 35.277 0 61.952-9.728 80.896-29.696 17.92-15.36 27.085-40.448 27.085-76.288 0-28.16-10.189-57.344-30.208-87.040-18.893-28.672-47.104-56.32-83.456-83.456 6.656-1.075 13.875-4.608 22.067-10.24 3.533-3.072 8.704-7.629 14.285-13.363 4.608-4.608 7.68-7.629 9.216-9.216 3.584-2.56 7.219-4.608 11.315-5.581 2.56-1.536 4.096-1.075 4.608 1.024 1.024 4.608-1.024 11.776-5.581 22.016-5.171 12.8-1.587 22.067 10.189 28.723 11.776 5.581 23.040 5.581 34.816-0.512 9.728-4.608 15.923-11.315 17.971-19.507 1.536-5.12 2.048-14.285 2.048-28.109v-3.584c0-21.504-6.707-37.376-19.507-47.104-12.237-9.216-28.621-11.315-49.101-7.219-9.216 3.123-18.432 8.192-26.675 14.848-4.608 3.584-10.752 8.755-18.432 16.384-8.704 7.629-15.36 14.336-20.992 18.432-5.632 3.584-11.776 6.144-17.92 7.68-2.56-2.56-4.096-7.168-5.12-13.875-0.512-3.533-0.512-8.141 0.512-14.285v-2.611c1.024-9.216-1.536-16.333-7.168-21.504-6.144-4.608-13.312-7.117-20.992-7.117-8.192 0-14.848 1.997-19.968 6.093-7.168 5.632-10.24 12.8-9.728 21.504v16.435z" />
<glyph unicode="&#xe63f;" glyph-name="alert" d="M512 844.115c-15.602 0-30.603-5.46-42.606-13.802l-418.258-705.758v-0.601c0-39.606 32.405-72.071 72.010-72.071h777.707c39.606 0 71.949 32.465 71.949 72.071v0.601l-418.797 705.698c-11.401 9.060-26.403 13.863-42.006 13.863zM450.191 267.974h114.016v-100.873h-114.016v100.873zM446.592 579.418h121.757v-93.613l-23.402-189.026h-75.55l-22.804 189.026v93.613z" />
<glyph unicode="&#xe640;" glyph-name="excel" d="M93.415 828.532v-748.379l570.797-139.528v152.16h266.372v735.747h-266.372v126.844l-570.797-126.844zM567.494 158.849l-152.213 29.121-85.62 172.296-77.692-141.114-92.49 17.441 117.859 221.977-98.304 190.266 98.304 23.255 52.852-112.045 61.308 139 149.042 34.882-151.684-271.657 178.638-303.421zM664.213 765.11h101.475v-101.475h-101.475v101.475zM791.004 765.11h101.528v-101.475h-101.528v101.475zM664.213 638.266h101.475v-101.475h-101.475v101.475zM791.004 638.266h101.528v-101.475h-101.528v101.475zM664.213 384.578h101.475v-101.475h-101.475v101.475zM791.004 384.578h101.528v-101.475h-101.528v101.475zM664.213 511.422h101.475v-101.475h-101.475v101.475zM791.004 511.422h101.528v-101.475h-101.528v101.475zM664.213 257.734h101.475v-101.475h-101.475v101.475zM791.004 257.734h101.528v-101.475h-101.528v101.475z" />
<glyph unicode="&#xe641;" glyph-name="pdf" d="M175.335 510.365v-61.308l16.913 1.057c12.684 1.057 21.141 2.643 25.369 5.285s7.399 6.342 10.042 11.627c2.643 4.757 3.7 10.57 3.7 17.441 0 7.928-1.586 14.798-5.285 19.555-3.171 4.757-7.928 7.928-12.684 8.456-4.228 0.529-11.627 0.529-22.726-0.529l-15.327-1.586zM335.476 526.22l0.529-156.969h28.54c10.57 0 18.498 1.057 23.255 2.695 6.871 2.061 12.156 5.285 16.384 9.989 4.228 5.285 7.928 13.213 10.57 24.312s4.228 26.426 4.228 45.452c0 19.555-1.586 34.354-4.228 44.395-3.171 10.042-6.871 17.441-11.627 22.726-5.285 5.285-11.099 8.456-18.498 10.042-5.814 0.529-16.384 0.529-32.239-1.057l-16.913-1.586zM93.415 828.532v-748.379l646.904-139.528v152.16h190.266v735.747h-190.266v126.844l-646.904-126.844zM740.319 765.11h139.528v-608.851h-139.528v608.851zM145.738 332.783l-0.529 209.821 49.152 6.342c19.027 2.114 31.711 2.643 38.053 1.057 9.513-2.114 17.441-8.456 23.783-19.027 6.871-10.57 10.042-25.369 10.042-43.338 0-13.741-2.114-25.897-5.814-35.411s-8.456-17.441-14.27-22.726c-5.285-5.814-11.099-9.513-16.913-11.627-7.928-2.114-19.027-3.7-33.297-4.228l-20.612-0.529 0.529-80.81-30.125 0.476zM298.479 561.631l68.179 8.456c16.384 1.586 29.068 1.586 37.525 0 12.156-3.171 22.198-9.513 31.182-19.555 8.456-10.042 15.327-23.255 20.084-39.11s6.871-35.939 7.399-59.722c0-21.141-2.114-39.11-6.871-54.437-4.757-18.551-12.684-33.297-22.198-44.977-7.399-8.456-16.913-14.746-29.068-19.502-8.985-3.171-20.612-4.757-35.411-4.228l-70.293 1.057-0.529 232.019zM502.487 325.86l-1.057 260.611 169.125 20.612v-48.095l-122.14-11.627v-63.422l105.175 6.342v-47.566l-104.594-4.228 0.529-113.631-47.038 1.004z" />
<glyph unicode="&#xe900;" glyph-name="load-ring-inner" d="M512 813.714c-201.978 0-365.714-163.736-365.714-365.714 0.032-47.367 9.362-93.322 26.291-135.402l33.62 13.959c-14.701 35.813-23.3 77.618-23.34 121.427 0 181.797 147.362 329.159 329.143 329.159 43.366-0.024 85.28-8.654 123.586-24.294l9.453 35.765c-39.379 15.86-85.13 25.085-133.034 25.1z" />
<glyph unicode="&#xe901;" glyph-name="load-ring-outer" d="M73.143 447.886c0.065-242.325 196.523-438.743 438.857-438.743 0 0 0 0 0 0s0 0 0 0c242.374 0 438.857 196.483 438.857 438.857 0 0 0 0 0 0-0.016 242.061-196.005 438.341-437.955 438.828l-0.047-36.586c221.793-0.487 401.406-180.385 401.43-402.241 0-0.002 0-0.002 0-0.002 0-222.176-180.109-402.286-402.286-402.286 0 0 0 0 0 0-222.136 0-402.221 180.044-402.286 402.165l-36.571 0.006z" />
<glyph unicode="&#xe902;" glyph-name="load-small-ring-inner" d="M512 667.429c-121.187 0-219.429-98.242-219.429-219.429 0.079-98.307 64.846-181.505 154.045-209.311l33.44 104.368c-45.382 14.126-77.763 55.752-77.771 104.942 0 60.595 49.121 109.715 109.714 109.715 49.15-0.042 90.746-32.425 104.648-77.023l105.223 31.18c-28.243 90.764-111.49 155.531-209.868 155.557z" />
<glyph unicode="&#xe903;" glyph-name="load-small-ring-outer" d="M512 886.857v-109.714c181.781 0 329.143-147.362 329.143-329.143s-147.362-329.143-329.143-329.143c-181.781 0-329.143 147.362-329.143 329.143h-109.714c0-242.374 196.483-438.857 438.857-438.857s438.857 196.483 438.857 438.857c0 242.374-196.483 438.857-438.857 438.857z" />
<glyph unicode="&#xe904;" glyph-name="menu-more" d="M388.414 183.172h247.172v-247.172h-247.172v247.172zM388.414 571.586h247.172v-247.172h-247.172v247.172zM388.414 960h247.172v-247.172h-247.172v247.172z" />
<glyph unicode="&#xe906;" glyph-name="pencil" d="M419.303 355.303l92.697 46.348 324.441 324.441-46.348 46.348-324.441-324.441-46.348-92.697zM350.722 190.841c-22.908 48.325-47.555 72.971-95.881 95.879l71.766 197.556 92.697 56.423 278.092 278.092h-139.045l-278.092-278.092-139.045-463.486 463.486 139.045 278.092 278.092v139.045l-278.092-278.092-56.423-92.697z" />
<glyph unicode="&#xe90d;" glyph-name="image" d="M959.884 832c0.040-0.034 0.082-0.076 0.116-0.116v-767.77c-0.034-0.040-0.076-0.082-0.116-0.116h-895.77c-0.040 0.034-0.082 0.076-0.114 0.116v767.772c0.034 0.040 0.076 0.082 0.114 0.114h895.77zM960 896h-896c-35.2 0-64-28.8-64-64v-768c0-35.2 28.8-64 64-64h896c35.2 0 64 28.8 64 64v768c0 35.2-28.8 64-64 64v0zM832 672c0-53.020-42.98-96-96-96s-96 42.98-96 96 42.98 96 96 96 96-42.98 96-96zM896 128h-768v128l224 384 256-320h64l224 192z" />
<glyph unicode="&#xe912;" glyph-name="play" d="M981.188 799.892c-143.632 20.65-302.332 32.108-469.186 32.108-166.86 0-325.556-11.458-469.194-32.108-27.53-107.726-42.808-226.75-42.808-351.892 0-125.14 15.278-244.166 42.808-351.89 143.638-20.652 302.336-32.11 469.194-32.11 166.854 0 325.552 11.458 469.186 32.11 27.532 107.724 42.812 226.75 42.812 351.89 0 125.142-15.28 244.166-42.812 351.892zM384.002 256v384l320-192-320-192z" />
<glyph unicode="&#xe91f;" glyph-name="book" d="M849.5 785.5v-731.25h-590.625c-46.605 0-84.375 37.776-84.375 84.375s37.77 84.375 84.375 84.375h534.375v675h-562.5c-61.873 0-112.5-50.625-112.5-112.5v-675c0-61.875 50.627-112.5 112.5-112.5h675v787.5h-56.25zM258.925 166.75v0c-0.016-0.002-0.034 0-0.050 0-15.532 0-28.125-12.592-28.125-28.125s12.593-28.125 28.125-28.125c0.016 0 0.034 0.002 0.050 0.002v-0.002h534.278v56.25h-534.278z" />
<glyph unicode="&#xe922;" glyph-name="file-text" d="M864 960h-768c-52.8 0-96-43.2-96-96v-832c0-52.8 43.2-96 96-96h768c52.8 0 96 43.2 96 96v832c0 52.8-43.2 96-96 96zM832 64h-704v768h704v-768zM256 512h448v-64h-448zM256 384h448v-64h-448zM256 256h448v-64h-448zM256 640h448v-64h-448z" />
<glyph unicode="&#xe923;" glyph-name="profile" d="M864 960h-768c-52.8 0-96-43.2-96-96v-832c0-52.8 43.2-96 96-96h768c52.8 0 96 43.2 96 96v832c0 52.8-43.2 96-96 96zM832 64h-704v768h704v-768zM256 384h448v-64h-448zM256 256h448v-64h-448zM320 672c0 53.019 42.981 96 96 96s96-42.981 96-96c0-53.019-42.981-96-96-96s-96 42.981-96 96zM480 576h-128c-52.8 0-96-28.8-96-64v-64h320v64c0 35.2-43.2 64-96 64z" />
<glyph unicode="&#xe92c;" glyph-name="copy" d="M640 704v256h-448l-192-192v-576h384v-256h640v768h-384zM192 869.49v-101.49h-101.49l101.49 101.49zM64 256v448h192v192h320v-192l-192-192v-256h-320zM576 613.49v-101.49h-101.49l101.49 101.49zM960 0h-512v448h192v192h320v-640z" />
<glyph unicode="&#xe935;" glyph-name="price-tag" d="M976 960h-384c-26.4 0-63.274-15.274-81.942-33.942l-476.116-476.116c-18.668-18.668-18.668-49.214 0-67.882l412.118-412.118c18.668-18.668 49.214-18.668 67.882 0l476.118 476.118c18.666 18.666 33.94 55.54 33.94 81.94v384c0 26.4-21.6 48-48 48zM736 576c-53.020 0-96 42.98-96 96s42.98 96 96 96 96-42.98 96-96-42.98-96-96-96z" />
<glyph unicode="&#xe936;" glyph-name="price-tags" horiz-adv-x="1280" d="M1232 960h-384c-26.4 0-63.274-15.274-81.942-33.942l-476.116-476.116c-18.668-18.668-18.668-49.214 0-67.882l412.118-412.118c18.668-18.668 49.214-18.668 67.882 0l476.118 476.118c18.666 18.666 33.94 55.54 33.94 81.94v384c0 26.4-21.6 48-48 48zM992 576c-53.020 0-96 42.98-96 96s42.98 96 96 96 96-42.98 96-96-42.98-96-96-96zM128 416l544 544h-80c-26.4 0-63.274-15.274-81.942-33.942l-476.116-476.116c-18.668-18.668-18.668-49.214 0-67.882l412.118-412.118c18.668-18.668 49.214-18.668 67.882 0l30.058 30.058-416 416z" />
<glyph unicode="&#xe937;" glyph-name="barcode" d="M0 832h128v-640h-128zM192 832h64v-640h-64zM320 832h64v-640h-64zM512 832h64v-640h-64zM768 832h64v-640h-64zM960 832h64v-640h-64zM640 832h32v-640h-32zM448 832h32v-640h-32zM864 832h32v-640h-32zM0 128h64v-64h-64zM192 128h64v-64h-64zM320 128h64v-64h-64zM640 128h64v-64h-64zM960 128h64v-64h-64zM768 128h128v-64h-128zM448 128h128v-64h-128z" />
<glyph unicode="&#xe938;" glyph-name="qrcode" d="M320 896h-256v-256h256v256zM384 960v0-384h-384v384h384zM128 832h128v-128h-128zM960 896h-256v-256h256v256zM1024 960v0-384h-384v384h384zM768 832h128v-128h-128zM320 256h-256v-256h256v256zM384 320v0-384h-384v384h384zM128 192h128v-128h-128zM448 960h64v-64h-64zM512 896h64v-64h-64zM448 832h64v-64h-64zM512 768h64v-64h-64zM448 704h64v-64h-64zM512 640h64v-64h-64zM448 576h64v-64h-64zM448 448h64v-64h-64zM512 384h64v-64h-64zM448 320h64v-64h-64zM512 256h64v-64h-64zM448 192h64v-64h-64zM512 128h64v-64h-64zM448 64h64v-64h-64zM512 0h64v-64h-64zM960 448h64v-64h-64zM64 448h64v-64h-64zM128 512h64v-64h-64zM0 512h64v-64h-64zM256 512h64v-64h-64zM320 448h64v-64h-64zM384 512h64v-64h-64zM576 448h64v-64h-64zM640 512h64v-64h-64zM704 448h64v-64h-64zM768 512h64v-64h-64zM832 448h64v-64h-64zM896 512h64v-64h-64zM960 320h64v-64h-64zM576 320h64v-64h-64zM640 384h64v-64h-64zM704 320h64v-64h-64zM832 320h64v-64h-64zM896 384h64v-64h-64zM960 192h64v-64h-64zM576 192h64v-64h-64zM640 256h64v-64h-64zM768 256h64v-64h-64zM832 192h64v-64h-64zM896 256h64v-64h-64zM960 64h64v-64h-64zM640 128h64v-64h-64zM704 64h64v-64h-64zM768 128h64v-64h-64zM832 64h64v-64h-64zM640 0h64v-64h-64zM768 0h64v-64h-64zM896 0h64v-64h-64z" />
<glyph unicode="&#xe944;" glyph-name="address-book" d="M248.328 869.875v-843.75h632.813v843.75h-632.813zM564.734 658.666c58.099 0 105.197-47.099 105.197-105.197s-47.098-105.197-105.197-105.197-105.197 47.099-105.197 105.197 47.099 105.197 105.197 105.197v0zM722.938 237.062h-316.406v52.734c0 58.252 47.218 105.469 105.469 105.469v0h105.469c58.252 0 105.469-47.216 105.469-105.469v-52.734zM142.859 817.141h79.102v-158.203h-79.102v158.203zM142.859 606.203h79.102v-158.203h-79.102v158.203zM142.859 395.266h79.102v-158.203h-79.102v158.203zM142.859 184.328h79.102v-158.203h-79.102v158.203z" />
<glyph unicode="&#xe946;" glyph-name="pushpin" d="M544 960l-96-96 96-96-224-256h-224l176-176-272-360.616v-39.384h39.384l360.616 272 176-176v224l256 224 96-96 96 96-480 480zM448 416l-64 64 224 224 64-64-224-224z" />
<glyph unicode="&#xe94d;" glyph-name="history" horiz-adv-x="1088" d="M640 896c247.424 0 448-200.576 448-448s-200.576-448-448-448v96c94.024 0 182.418 36.614 248.902 103.098s103.098 154.878 103.098 248.902c0 94.022-36.614 182.418-103.098 248.902s-154.878 103.098-248.902 103.098c-94.022 0-182.418-36.614-248.902-103.098-51.14-51.138-84.582-115.246-97.306-184.902h186.208l-224-256-224 256h164.57c31.060 217.102 217.738 384 443.43 384zM832 512v-128h-256v320h128v-192z" />
<glyph unicode="&#xe951;" glyph-name="bell" d="M1025.5 160c0 288-256 224-256 448 0 18.56-1.788 34.42-5.048 47.928-16.83 113.018-92.156 203.72-189.772 231.36 0.866 3.948 1.32 8.032 1.32 12.21 0 33.278-28.8 60.502-64 60.502s-64-27.224-64-60.5c0-4.18 0.456-8.264 1.32-12.21-109.47-30.998-190.914-141.298-193.254-273.442-0.040-1.92-0.066-3.864-0.066-5.846 0-224.002-256-160.002-256-448.002 0-76.226 170.59-139.996 398.97-156.080 21.524-40.404 64.056-67.92 113.030-67.92s91.508 27.516 113.030 67.92c228.38 16.084 398.97 79.854 398.97 156.080 0 0.228-0.026 0.456-0.028 0.682l1.528-0.682zM826.246 105.904c-54.23-14.47-118.158-24.876-186.768-30.648-5.704 65.418-60.582 116.744-127.478 116.744s-121.774-51.326-127.478-116.744c-68.608 5.772-132.538 16.178-186.768 30.648-74.63 19.914-110.31 42.19-123.368 54.096 13.058 11.906 48.738 34.182 123.368 54.096 86.772 23.152 198.372 35.904 314.246 35.904s227.474-12.752 314.246-35.904c74.63-19.914 110.31-42.19 123.368-54.096-13.058-11.906-48.738-34.182-123.368-54.096z" />
<glyph unicode="&#xe954;" glyph-name="printer" d="M256 896h512v-128h-512v128zM960 704h-896c-35.2 0-64-28.8-64-64v-320c0-35.2 28.794-64 64-64h192v-256h512v256h192c35.2 0 64 28.8 64 64v320c0 35.2-28.8 64-64 64zM128 512c-35.346 0-64 28.654-64 64s28.654 64 64 64 64-28.654 64-64-28.652-64-64-64zM704 64h-384v320h384v-320z" />
<glyph unicode="&#xe958;" glyph-name="mobile" d="M736 960h-448c-52.8 0-96-43.2-96-96v-832c0-52.8 43.2-96 96-96h448c52.8 0 96 43.2 96 96v832c0 52.8-43.2 96-96 96zM384 912h256v-32h-256v32zM512 0c-35.346 0-64 28.654-64 64s28.654 64 64 64 64-28.654 64-64-28.654-64-64-64zM768 192h-512v640h512v-640z" />
<glyph unicode="&#xe962;" glyph-name="save" d="M849.5 898h-787.5v-900h900v787.5l-112.5 112.5zM512 785.5h112.5v-225h-112.5v225zM849.5 110.5h-675v675h56.25v-281.25h506.25v281.25h65.899l46.601-46.598v-628.402z" />
<glyph unicode="&#xe96b;" glyph-name="bubble" d="M512 896c282.77 0 512-186.25 512-416 0-229.752-229.23-416-512-416-27.156 0-53.81 1.734-79.824 5.044-109.978-109.978-241.25-129.7-368.176-132.596v26.916c68.536 33.578 128 94.74 128 164.636 0 9.754-0.758 19.33-2.164 28.696-115.796 76.264-189.836 192.754-189.836 323.304 0 229.75 229.23 416 512 416z" />
<glyph unicode="&#xe971;" glyph-name="user" d="M576 253.388v52.78c70.498 39.728 128 138.772 128 237.832 0 159.058 0 288-192 288s-192-128.942-192-288c0-99.060 57.502-198.104 128-237.832v-52.78c-217.102-17.748-384-124.42-384-253.388h896c0 128.968-166.898 235.64-384 253.388z" />
<glyph unicode="&#xe972;" glyph-name="users" horiz-adv-x="1152" d="M768 189.388v52.78c70.498 39.728 128 138.772 128 237.832 0 159.058 0 288-192 288s-192-128.942-192-288c0-99.060 57.502-198.104 128-237.832v-52.78c-217.102-17.748-384-124.42-384-253.388h896c0 128.968-166.898 235.64-384 253.388zM327.196 164.672c55.31 36.15 124.080 63.636 199.788 80.414-15.054 17.784-28.708 37.622-40.492 59.020-30.414 55.234-46.492 116.058-46.492 175.894 0 86.042 0 167.31 30.6 233.762 29.706 64.504 83.128 104.496 159.222 119.488-16.914 76.48-61.94 126.75-181.822 126.75-192 0-192-128.942-192-288 0-99.060 57.502-198.104 128-237.832v-52.78c-217.102-17.748-384-124.42-384-253.388h279.006c14.518 12.91 30.596 25.172 48.19 36.672z" />
<glyph unicode="&#xe979;" glyph-name="hour-glass" d="M728.992 448c137.754 87.334 231.008 255.208 231.008 448 0 21.676-1.192 43.034-3.478 64h-889.042c-2.29-20.968-3.48-42.326-3.48-64 0-192.792 93.254-360.666 231.006-448-137.752-87.334-231.006-255.208-231.006-448 0-21.676 1.19-43.034 3.478-64h889.042c2.288 20.966 3.478 42.324 3.478 64 0.002 192.792-93.252 360.666-231.006 448zM160 0c0 186.912 80.162 345.414 224 397.708v100.586c-143.838 52.29-224 210.792-224 397.706v0h704c0-186.914-80.162-345.416-224-397.706v-100.586c143.838-52.294 224-210.796 224-397.708h-704zM619.626 290.406c-71.654 40.644-75.608 93.368-75.626 125.366v64.228c0 31.994 3.804 84.914 75.744 125.664 38.504 22.364 71.808 56.348 97.048 98.336h-409.582c25.266-42.032 58.612-76.042 97.166-98.406 71.654-40.644 75.606-93.366 75.626-125.366v-64.228c0-31.992-3.804-84.914-75.744-125.664-72.622-42.18-126.738-125.684-143.090-226.336h501.67c-16.364 100.708-70.53 184.248-143.212 226.406z" />
<glyph unicode="&#xe985;" glyph-name="binoculars" d="M92 928h360v-60h-360zM572 928h360v-60h-360zM924.5 628h-52.5v240h-240v-240h-240v240h-240v-240h-52.5c-37.125 0-67.5-30.375-67.5-67.5v-525c0-37.125 30.375-67.5 67.5-67.5h285c37.125 0 67.5 30.375 67.5 67.5v352.5h120v-352.5c0-37.125 30.375-67.5 67.5-67.5h285c37.125 0 67.5 30.375 67.5 67.5v525c0 37.125-30.375 67.5-67.5 67.5zM358.25 28h-232.5c-18.563 0-33.75 13.5-33.75 30s15.188 30 33.75 30h232.5c18.563 0 33.75-13.5 33.75-30s-15.188-30-33.75-30zM542 448h-60c-16.5 0-30 13.5-30 30s13.5 30 30 30h60c16.5 0 30-13.5 30-30s-13.5-30-30-30zM898.25 28h-232.5c-18.563 0-33.75 13.5-33.75 30s15.188 30 33.75 30h232.5c18.563 0 33.75-13.5 33.75-30s-15.188-30-33.75-30z" />
<glyph unicode="&#xe986;" glyph-name="search" d="M992.262 88.604l-242.552 206.294c-25.074 22.566-51.89 32.926-73.552 31.926 57.256 67.068 91.842 154.078 91.842 249.176 0 212.078-171.922 384-384 384-212.076 0-384-171.922-384-384s171.922-384 384-384c95.098 0 182.108 34.586 249.176 91.844-1-21.662 9.36-48.478 31.926-73.552l206.294-242.552c35.322-39.246 93.022-42.554 128.22-7.356s31.892 92.898-7.354 128.22zM384 320c-141.384 0-256 114.616-256 256s114.616 256 256 256 256-114.616 256-256-114.614-256-256-256z" />
<glyph unicode="&#xe987;" glyph-name="zoom-in" d="M992.262 88.604l-242.552 206.294c-25.074 22.566-51.89 32.926-73.552 31.926 57.256 67.068 91.842 154.078 91.842 249.176 0 212.078-171.922 384-384 384-212.076 0-384-171.922-384-384s171.922-384 384-384c95.098 0 182.108 34.586 249.176 91.844-1-21.662 9.36-48.478 31.926-73.552l206.294-242.552c35.322-39.246 93.022-42.554 128.22-7.356s31.892 92.898-7.354 128.22zM384 320c-141.384 0-256 114.616-256 256s114.616 256 256 256 256-114.616 256-256-114.614-256-256-256zM448 768h-128v-128h-128v-128h128v-128h128v128h128v128h-128z" />
<glyph unicode="&#xe988;" glyph-name="zoom-out" d="M992.262 88.604l-242.552 206.294c-25.074 22.566-51.89 32.926-73.552 31.926 57.256 67.068 91.842 154.078 91.842 249.176 0 212.078-171.922 384-384 384-212.076 0-384-171.922-384-384s171.922-384 384-384c95.098 0 182.108 34.586 249.176 91.844-1-21.662 9.36-48.478 31.926-73.552l206.294-242.552c35.322-39.246 93.022-42.554 128.22-7.356s31.892 92.898-7.354 128.22zM384 320c-141.384 0-256 114.616-256 256s114.616 256 256 256 256-114.616 256-256-114.614-256-256-256zM192 640h384v-128h-384z" />
<glyph unicode="&#xe989;" glyph-name="enlarge" d="M962 898h-365.625l140.625-140.625-168.75-168.75 84.375-84.375 168.75 168.75 140.625-140.625zM962-2v365.625l-140.625-140.625-168.75 168.75-84.375-84.375 168.75-168.75-140.625-140.625zM62-2h365.625l-140.625 140.625 168.75 168.75-84.375 84.375-168.75-168.75-140.625 140.625zM62 898v-365.625l140.625 140.625 168.75-168.75 84.375 84.375-168.75 168.75 140.625 140.625z" />
<glyph unicode="&#xe98a;" glyph-name="shrink" d="M568.25 504.25h365.625l-140.625 140.625 168.75 168.75-84.375 84.375-168.75-168.75-140.625 140.625zM568.25 391.75v-365.625l140.625 140.625 168.75-168.75 84.375 84.375-168.75 168.75 140.625 140.625zM455.75 391.754h-365.625l140.625-140.625-168.75-168.75 84.375-84.375 168.75 168.75 140.625-140.625zM455.75 504.25v365.625l-140.625-140.625-168.75 168.75-84.375-84.375 168.75-168.75-140.625-140.625z" />
<glyph unicode="&#xe98d;" glyph-name="key" d="M670.203 869.875c-145.621 0-263.672-118.049-263.672-263.672 0-16.501 1.531-32.643 4.43-48.305l-320.836-320.836v-158.203c0-29.124 23.61-52.734 52.734-52.734h52.734v52.734h105.469v105.469h105.469v105.469h105.469l68.424 68.424c28.023-10.148 58.252-15.69 89.779-15.69 145.621 0 263.672 118.049 263.672 263.672s-118.051 263.672-263.672 263.672zM749.201 606.099c-43.687 0-79.102 35.415-79.102 79.102s35.415 79.102 79.102 79.102 79.102-35.415 79.102-79.102-35.415-79.102-79.102-79.102z" />
<glyph unicode="&#xe993;" glyph-name="equalizer2" d="M896 512h16c26.4 0 48 21.6 48 48v160c0 26.4-21.6 48-48 48h-16v192h-128v-192h-16c-26.4 0-48-21.6-48-48v-160c0-26.4 21.6-48 48-48h16v-576h128v576zM768 704h128v-128h-128v128zM592 128c26.4 0 48 21.6 48 48v160c0 26.4-21.6 48-48 48h-16v576h-128v-576h-16c-26.4 0-48-21.6-48-48v-160c0-26.4 21.6-48 48-48h16v-192h128v192h16zM448 320h128v-128h-128v128zM272 512c26.4 0 48 21.6 48 48v160c0 26.4-21.6 48-48 48h-16v192h-128v-192h-16c-26.4 0-48-21.6-48-48v-160c0-26.4 21.6-48 48-48h16v-576h128v576h16zM128 704h128v-128h-128v128z" />
<glyph unicode="&#xe9ac;" glyph-name="bin" d="M152 628v-600c0-33 27-60 60-60h540c33 0 60 27 60 60v600h-660zM332 88h-60v420h60v-420zM452 88h-60v420h60v-420zM572 88h-60v420h60v-420zM692 88h-60v420h60v-420zM827 808h-195v75c0 24.75-20.25 45-45 45h-210c-24.75 0-45-20.25-45-45v-75h-195c-24.75 0-45-20.25-45-45v-75h780v75c0 24.75-20.25 45-45 45zM572 808h-180v59.248h180v-59.248z" />
<glyph unicode="&#xe9ae;" glyph-name="briefcase" d="M960 704h-256v64c0 35.2-28.8 64-64 64h-256c-35.204 0-64-28.8-64-64v-64h-256c-35.2 0-64-28.8-64-64v-576c0-35.202 28.796-64 64-64h896c35.2 0 64 28.798 64 64v576c0 35.2-28.8 64-64 64zM384 767.884c0.034 0.040 0.074 0.082 0.114 0.116h255.772c0.042-0.034 0.082-0.076 0.118-0.116v-63.884h-256.004v63.884zM960 448h-128v-96c0-17.602-14.4-32-32-32h-64c-17.604 0-32 14.398-32 32v96h-384v-96c0-17.602-14.4-32-32-32h-64c-17.602 0-32 14.398-32 32v96h-128v64h896v-64z" />
<glyph unicode="&#xe9af;" glyph-name="airplane" d="M768 320.032l-182.82 182.822 438.82 329.15-128.010 127.996-548.52-219.442-172.7 172.706c-49.78 49.778-119.302 61.706-154.502 26.508-35.198-35.198-23.268-104.726 26.51-154.5l172.686-172.684-219.464-548.582 127.99-128.006 329.19 438.868 182.826-182.828v-255.98h127.994l63.992 191.988 191.988 63.996v127.992l-255.98-0.004z" />
<glyph unicode="&#xe9b0;" glyph-name="truck" d="M1024 384l-128 256h-192v128c0 35.2-28.8 64-64 64h-576c-35.2 0-64-28.8-64-64v-512l64-64h81.166c-10.898-18.832-17.166-40.678-17.166-64 0-70.692 57.308-128 128-128s128 57.308 128 128c0 23.322-6.268 45.168-17.166 64h354.334c-10.898-18.832-17.168-40.678-17.168-64 0-70.692 57.308-128 128-128s128 57.308 128 128c0 23.322-6.27 45.168-17.168 64h81.168v192zM704 384v192h132.668l96-192h-228.668z" />
<glyph unicode="&#xe9b4;" glyph-name="shield" d="M960 960l-448-128-448 128c0 0-4.5-51.698 0-128l448-140.090 448 140.090c4.498 76.302 0 128 0 128zM72.19 764.894c23.986-250.696 113.49-672.234 439.81-828.894 326.32 156.66 415.824 578.198 439.81 828.894l-439.81-165.358-439.81 165.358z" />
<glyph unicode="&#xe9b5;" glyph-name="power" d="M384 960l-384-512h384l-256-512 896 640h-512l384 384z" />
<glyph unicode="&#xe9b8;" glyph-name="clipboard" d="M928 832h-288c0 70.692-57.306 128-128 128-70.692 0-128-57.308-128-128h-288c-17.672 0-32-14.328-32-32v-832c0-17.674 14.328-32 32-32h832c17.674 0 32 14.326 32 32v832c0 17.672-14.326 32-32 32zM512 896c35.346 0 64-28.654 64-64s-28.654-64-64-64c-35.346 0-64 28.654-64 64s28.654 64 64 64zM896 0h-768v768h128v-96c0-17.672 14.328-32 32-32h448c17.674 0 32 14.328 32 32v96h128v-768zM448 101.49l-205.254 237.254 58.508 58.51 146.746-114.744 274.742 242.744 58.514-58.508z" />
<glyph unicode="&#xe9bc;" glyph-name="tree" d="M976 192h-16v208c0 61.756-50.242 112-112 112h-272v128h16c26.4 0 48 21.6 48 48v160c0 26.4-21.6 48-48 48h-160c-26.4 0-48-21.6-48-48v-160c0-26.4 21.6-48 48-48h16v-128h-272c-61.756 0-112-50.244-112-112v-208h-16c-26.4 0-48-21.6-48-48v-160c0-26.4 21.6-48 48-48h160c26.4 0 48 21.6 48 48v160c0 26.4-21.6 48-48 48h-16v192h256v-192h-16c-26.4 0-48-21.6-48-48v-160c0-26.4 21.6-48 48-48h160c26.4 0 48 21.6 48 48v160c0 26.4-21.6 48-48 48h-16v192h256v-192h-16c-26.4 0-48-21.6-48-48v-160c0-26.4 21.6-48 48-48h160c26.4 0 48 21.6 48 48v160c0 26.4-21.6 48-48 48zM192 0h-128v128h128v-128zM576 0h-128v128h128v-128zM448 704v128h128v-128h-128zM960 0h-128v128h128v-128z" />
<glyph unicode="&#xe9c2;" glyph-name="cloud-download" d="M891.004 599.94c-3.242 128.698-108.458 232.060-237.862 232.060-75.792 0-143.266-35.494-186.854-90.732-24.442 31.598-62.69 51.96-105.708 51.96-73.81 0-133.642-59.876-133.642-133.722 0-6.436 0.48-12.76 1.364-18.954-11.222 2.024-22.766 3.138-34.57 3.138-106.998 0.002-193.732-86.786-193.732-193.842 0-107.062 86.734-193.848 193.73-193.848h91.76l226.51-234.51 226.51 234.51 111.482 0.012c96.138 0.184 174.008 78.21 174.008 174.446 0 82.090-56.678 150.9-132.996 169.482zM512 128l-192 192h128v192h128v-192h128l-192-192z" />
<glyph unicode="&#xe9c3;" glyph-name="cloud-upload" d="M892.268 573.51c2.444 11.11 3.732 22.648 3.732 34.49 0 88.366-71.634 160-160 160-14.222 0-28.014-1.868-41.132-5.352-24.798 77.352-97.29 133.352-182.868 133.352-87.348 0-161.054-58.336-184.326-138.17-22.742 6.622-46.792 10.17-71.674 10.17-141.384 0-256-114.616-256-256 0-141.388 114.616-256 256-256h128v-192h256v192h224c88.366 0 160 71.632 160 160 0 78.72-56.854 144.162-131.732 157.51zM576 320v-192h-128v192h-160l224 224 224-224h-160z" />
<glyph unicode="&#xe9c9;" glyph-name="sphere" d="M480 896c-265.096 0-480-214.904-480-480 0-265.098 214.904-480 480-480 265.098 0 480 214.902 480 480 0 265.096-214.902 480-480 480zM751.59 256c8.58 40.454 13.996 83.392 15.758 128h127.446c-3.336-44.196-13.624-87.114-30.68-128h-112.524zM208.41 576c-8.58-40.454-13.996-83.392-15.758-128h-127.444c3.336 44.194 13.622 87.114 30.678 128h112.524zM686.036 576c9.614-40.962 15.398-83.854 17.28-128h-191.316v128h174.036zM512 640v187.338c14.59-4.246 29.044-11.37 43.228-21.37 26.582-18.74 52.012-47.608 73.54-83.486 14.882-24.802 27.752-52.416 38.496-82.484h-155.264zM331.232 722.484c21.528 35.878 46.956 64.748 73.54 83.486 14.182 10 28.638 17.124 43.228 21.37v-187.34h-155.264c10.746 30.066 23.616 57.68 38.496 82.484zM448 576v-128h-191.314c1.88 44.146 7.666 87.038 17.278 128h174.036zM95.888 256c-17.056 40.886-27.342 83.804-30.678 128h127.444c1.762-44.608 7.178-87.546 15.758-128h-112.524zM256.686 384h191.314v-128h-174.036c-9.612 40.96-15.398 83.854-17.278 128zM448 192v-187.34c-14.588 4.246-29.044 11.372-43.228 21.37-26.584 18.74-52.014 47.61-73.54 83.486-14.882 24.804-27.75 52.418-38.498 82.484h155.266zM628.768 109.516c-21.528-35.876-46.958-64.746-73.54-83.486-14.184-9.998-28.638-17.124-43.228-21.37v187.34h155.266c-10.746-30.066-23.616-57.68-38.498-82.484zM512 256v128h191.314c-1.88-44.146-7.666-87.040-17.28-128h-174.034zM767.348 448c-1.762 44.608-7.178 87.546-15.758 128h112.524c17.056-40.886 27.344-83.806 30.68-128h-127.446zM830.658 640h-95.9c-18.638 58.762-44.376 110.294-75.316 151.428 42.536-20.34 81.058-47.616 114.714-81.272 21.48-21.478 40.362-44.938 56.502-70.156zM185.844 710.156c33.658 33.658 72.18 60.932 114.714 81.272-30.942-41.134-56.676-92.666-75.316-151.428h-95.898c16.138 25.218 35.022 48.678 56.5 70.156zM129.344 192h95.898c18.64-58.762 44.376-110.294 75.318-151.43-42.536 20.34-81.058 47.616-114.714 81.274-21.48 21.478-40.364 44.938-56.502 70.156zM774.156 121.844c-33.656-33.658-72.18-60.934-114.714-81.274 30.942 41.134 56.678 92.668 75.316 151.43h95.9c-16.14-25.218-35.022-48.678-56.502-70.156z" />
<glyph unicode="&#xe9ca;" glyph-name="earth" d="M512 960c-282.77 0-512-229.23-512-512s229.23-512 512-512 512 229.23 512 512-229.23 512-512 512zM512-0.002c-62.958 0-122.872 13.012-177.23 36.452l233.148 262.29c5.206 5.858 8.082 13.422 8.082 21.26v96c0 17.674-14.326 32-32 32-112.99 0-232.204 117.462-233.374 118.626-6 6.002-14.14 9.374-22.626 9.374h-128c-17.672 0-32-14.328-32-32v-192c0-12.122 6.848-23.202 17.69-28.622l110.31-55.156v-187.886c-116.052 80.956-192 215.432-192 367.664 0 68.714 15.49 133.806 43.138 192h116.862c8.488 0 16.626 3.372 22.628 9.372l128 128c6 6.002 9.372 14.14 9.372 22.628v77.412c40.562 12.074 83.518 18.588 128 18.588 70.406 0 137.004-16.26 196.282-45.2-4.144-3.502-8.176-7.164-12.046-11.036-36.266-36.264-56.236-84.478-56.236-135.764s19.97-99.5 56.236-135.764c36.434-36.432 85.218-56.264 135.634-56.26 3.166 0 6.342 0.080 9.518 0.236 13.814-51.802 38.752-186.656-8.404-372.334-0.444-1.744-0.696-3.488-0.842-5.224-81.324-83.080-194.7-134.656-320.142-134.656z" />
<glyph unicode="&#xe9cb;" glyph-name="link" d="M440.236 324.234c-13.31 0-26.616 5.076-36.77 15.23-95.134 95.136-95.134 249.934 0 345.070l192 192c46.088 46.086 107.36 71.466 172.534 71.466s126.448-25.38 172.536-71.464c95.132-95.136 95.132-249.934 0-345.070l-87.766-87.766c-20.308-20.308-53.23-20.308-73.54 0-20.306 20.306-20.306 53.232 0 73.54l87.766 87.766c54.584 54.586 54.584 143.404 0 197.99-26.442 26.442-61.6 41.004-98.996 41.004s-72.552-14.562-98.996-41.006l-192-191.998c-54.586-54.586-54.586-143.406 0-197.992 20.308-20.306 20.306-53.232 0-73.54-10.15-10.152-23.462-15.23-36.768-15.23zM256-52c-65.176 0-126.45 25.38-172.534 71.464-95.134 95.136-95.134 249.934 0 345.070l87.764 87.764c20.308 20.306 53.234 20.306 73.54 0 20.308-20.306 20.308-53.232 0-73.54l-87.764-87.764c-54.586-54.586-54.586-143.406 0-197.992 26.44-26.44 61.598-41.002 98.994-41.002s72.552 14.562 98.998 41.006l192 191.998c54.584 54.586 54.584 143.406 0 197.992-20.308 20.308-20.306 53.232 0 73.54 20.306 20.306 53.232 20.306 73.54-0.002 95.132-95.134 95.132-249.932 0.002-345.068l-192.002-192c-46.090-46.088-107.364-71.466-172.538-71.466z" />
<glyph unicode="&#xe9cc;" glyph-name="flag" d="M116.492 843.508h98.877v-791.015h-98.877v791.015zM759.193 346.804c63.825 0 119.401 15.437 148.315 38.238v395.508c-28.914-22.802-84.49-38.24-148.315-38.24s-119.401 15.437-148.315 38.24v-395.508c28.914-22.801 84.49-38.238 148.315-38.238zM586.158 818.381c-36.233 15.404-89.236 25.127-148.315 25.127-74.464 0-139.305-15.437-173.034-38.239v-395.508c33.73 22.802 98.571 38.24 173.034 38.24 59.079 0 112.082-9.724 148.315-25.127v395.508z" />
<glyph unicode="&#xe9cd;" glyph-name="attachment" d="M665.832 632.952l-64.952 64.922-324.81-324.742c-53.814-53.792-53.814-141.048 0-194.844 53.804-53.792 141.060-53.792 194.874 0l389.772 389.708c89.714 89.662 89.714 235.062 0 324.726-89.666 89.704-235.112 89.704-324.782 0l-409.23-409.178c-0.29-0.304-0.612-0.576-0.876-0.846-125.102-125.096-125.102-327.856 0-452.906 125.054-125.056 327.868-125.056 452.988 0 0.274 0.274 0.516 0.568 0.82 0.876l0.032-0.034 279.332 279.292-64.986 64.92-279.33-279.262c-0.296-0.268-0.564-0.57-0.846-0.844-89.074-89.058-233.98-89.058-323.076 0-89.062 89.042-89.062 233.922 0 322.978 0.304 0.304 0.604 0.582 0.888 0.846l-0.046 0.060 409.28 409.166c53.712 53.738 141.144 53.738 194.886 0 53.712-53.734 53.712-141.148 0-194.84l-389.772-389.7c-17.936-17.922-47.054-17.922-64.972 0-17.894 17.886-17.894 47.032 0 64.92l324.806 324.782z" />
<glyph unicode="&#xe9d7;" glyph-name="star-empty" d="M1024 562.95l-353.78 51.408-158.22 320.582-158.216-320.582-353.784-51.408 256-249.538-60.432-352.352 316.432 166.358 316.432-166.358-60.434 352.352 256.002 249.538zM512 206.502l-223.462-117.48 42.676 248.83-180.786 176.222 249.84 36.304 111.732 226.396 111.736-226.396 249.836-36.304-180.788-176.222 42.678-248.83-223.462 117.48z" />
<glyph unicode="&#xe9d9;" glyph-name="star-full" d="M1024 562.95l-353.78 51.408-158.22 320.582-158.216-320.582-353.784-51.408 256-249.538-60.432-352.352 316.432 166.358 316.432-166.358-60.434 352.352 256.002 249.538z" />
<glyph unicode="&#xe9df;" glyph-name="emot-happy" d="M512-64c282.77 0 512 229.23 512 512s-229.23 512-512 512-512-229.23-512-512 229.23-512 512-512zM512 864c229.75 0 416-186.25 416-416s-186.25-416-416-416-416 186.25-416 416 186.25 416 416 416zM512 361.24c115.95 0 226.23 30.806 320 84.92-14.574-178.438-153.128-318.16-320-318.16-166.868 0-305.422 139.872-320 318.304 93.77-54.112 204.050-85.064 320-85.064zM256 608c0 53.019 28.654 96 64 96s64-42.981 64-96c0-53.019-28.654-96-64-96s-64 42.981-64 96zM640 608c0 53.019 28.654 96 64 96s64-42.981 64-96c0-53.019-28.654-96-64-96s-64 42.981-64 96z" />
<glyph unicode="&#xe9e1;" glyph-name="emot-smile" d="M512-64c282.77 0 512 229.23 512 512s-229.23 512-512 512-512-229.23-512-512 229.23-512 512-512zM512 864c229.75 0 416-186.25 416-416s-186.25-416-416-416-416 186.25-416 416 186.25 416 416 416zM256 640c0 35.346 28.654 64 64 64s64-28.654 64-64c0-35.346-28.654-64-64-64s-64 28.654-64 64zM640 640c0 35.346 28.654 64 64 64s64-28.654 64-64c0-35.346-28.654-64-64-64s-64 28.654-64 64zM704.098 332.74l82.328-49.396c-55.962-93.070-157.916-155.344-274.426-155.344s-218.464 62.274-274.426 155.344l82.328 49.396c39.174-65.148 110.542-108.74 192.098-108.74s152.924 43.592 192.098 108.74z" />
<glyph unicode="&#xe9e5;" glyph-name="emot-sad" d="M512-64c282.77 0 512 229.23 512 512s-229.23 512-512 512-512-229.23-512-512 229.23-512 512-512zM512 864c229.75 0 416-186.25 416-416s-186.25-416-416-416-416 186.25-416 416 186.25 416 416 416zM256 640c0 35.346 28.654 64 64 64s64-28.654 64-64c0-35.346-28.654-64-64-64s-64 28.654-64 64zM640 640c0 35.346 28.654 64 64 64s64-28.654 64-64c0-35.346-28.654-64-64-64s-64 28.654-64 64zM319.902 179.26l-82.328 49.396c55.962 93.070 157.916 155.344 274.426 155.344 116.508 0 218.462-62.274 274.426-155.344l-82.328-49.396c-39.174 65.148-110.542 108.74-192.098 108.74-81.558 0-152.924-43.592-192.098-108.74z" />
<glyph unicode="&#xe9f7;" glyph-name="emot-neutral" d="M512-64c282.77 0 512 229.23 512 512s-229.23 512-512 512-512-229.23-512-512 229.23-512 512-512zM512 864c229.75 0 416-186.25 416-416s-186.25-416-416-416-416 186.25-416 416 186.25 416 416 416zM256 640c0-35.346 28.654-64 64-64s64 28.654 64 64-28.654 64-64 64-64-28.654-64-64zM640 640c0-35.346 28.654-64 64-64s64 28.654 64 64-28.654 64-64 64-64-28.654-64-64zM384 256h256v-64h-256v64z" />
<glyph unicode="&#xea48;" glyph-name="sort-asc" d="M343.25 223v675h-112.5v-675h-140.625l196.875-196.875 196.875 196.875h-140.625zM877.625-2h-225c-10.372 0-19.902 5.709-24.798 14.854-4.892 9.144-4.358 20.242 1.398 28.872l195.848 293.774h-172.448c-15.532 0-28.125 12.593-28.125 28.125s12.593 28.125 28.125 28.125h225c10.371 0 19.902-5.709 24.798-14.854 4.892-9.144 4.358-20.242-1.398-28.872l-195.847-293.774h172.447c15.532 0 28.125-12.593 28.125-28.125s-12.593-28.125-28.125-28.125zM959.031 544.955l-168.752 337.5c-4.763 9.529-14.504 15.548-25.156 15.548-10.654 0-20.393-6.019-25.158-15.548l-168.746-337.5c-6.947-13.892-1.314-30.788 12.577-37.733 4.038-2.017 8.329-2.976 12.558-2.976 10.315 0 20.25 5.699 25.176 15.555l48.477 96.952h190.236l48.477-96.952c6.945-13.892 23.84-19.521 37.733-12.577 13.894 6.945 19.525 23.84 12.579 37.732zM698.133 673.004l66.99 133.986 66.994-133.986h-133.984z" />
<glyph unicode="&#xea49;" glyph-name="sort-desc" d="M343.25 223v675h-112.5v-675h-140.625l196.875-196.875 196.875 196.875h-140.625zM877.625 504.25h-225c-10.372 0-19.902 5.709-24.798 14.854-4.892 9.146-4.358 20.242 1.398 28.872l195.848 293.774h-172.448c-15.532 0-28.125 12.593-28.125 28.125s12.593 28.125 28.125 28.125h225c10.371 0 19.902-5.709 24.798-14.854 4.892-9.146 4.358-20.242-1.398-28.872l-195.847-293.774h172.447c15.532 0 28.125-12.593 28.125-28.125s-12.593-28.125-28.125-28.125zM959.031 38.703l-168.752 337.5c-4.763 9.529-14.504 15.547-25.156 15.547-10.654 0-20.393-6.019-25.158-15.547l-168.746-337.5c-6.947-13.892-1.314-30.788 12.577-37.733 4.038-2.018 8.329-2.976 12.558-2.976 10.315 0 20.25 5.699 25.176 15.555l48.479 96.952h190.236l48.477-96.952c6.945-13.892 23.84-19.521 37.733-12.578 13.892 6.945 19.524 23.84 12.577 37.732zM698.133 166.75l66.99 133.986 66.996-133.986h-133.986z" />
<glyph unicode="&#xea82;" glyph-name="share2" d="M864 256c-45.16 0-85.92-18.738-115.012-48.83l-431.004 215.502c1.314 8.252 2.016 16.706 2.016 25.328s-0.702 17.076-2.016 25.326l431.004 215.502c29.092-30.090 69.852-48.828 115.012-48.828 88.366 0 160 71.634 160 160s-71.634 160-160 160-160-71.634-160-160c0-8.622 0.704-17.076 2.016-25.326l-431.004-215.504c-29.092 30.090-69.852 48.83-115.012 48.83-88.366 0-160-71.636-160-160 0-88.368 71.634-160 160-160 45.16 0 85.92 18.738 115.012 48.828l431.004-215.502c-1.312-8.25-2.016-16.704-2.016-25.326 0-88.368 71.634-160 160-160s160 71.632 160 160c0 88.364-71.634 160-160 160z" />
</font>
</defs>
</svg>
